<?xml version="1.0" encoding="UTF-8"?>
<svg xmlns="http://www.w3.org/2000/svg" xmlns:xlink="http://www.w3.org/1999/xlink" width="854" height="480" viewBox="0 0 854 480">
<defs>
<g>
<g id="glyph-0-0">
<path d="M 4.734375 -4.296875 L 4.734375 -4.421875 L 3.171875 -4.421875 L 3.171875 -4.296875 C 3.6875 -4.25 3.8125 -4.125 3.8125 -3.4375 L 3.8125 -1.1875 L 1.234375 -4.421875 L 0.09375 -4.421875 L 0.09375 -4.296875 C 0.390625 -4.296875 0.484375 -4.234375 0.75 -3.921875 L 0.75 -0.984375 C 0.75 -0.296875 0.65625 -0.171875 0.09375 -0.125 L 0.09375 0 L 1.671875 0 L 1.671875 -0.125 C 1.15625 -0.15625 1.046875 -0.3125 1.046875 -0.984375 L 1.046875 -3.59375 L 3.984375 0.078125 L 4.109375 0.078125 L 4.109375 -3.4375 C 4.109375 -4.21875 4.328125 -4.25 4.734375 -4.296875 Z "/>
</g>
<g id="glyph-0-1">
<path d="M 2.375 0.09375 C 3.6875 0.09375 4.59375 -0.84375 4.59375 -2.1875 C 4.59375 -3.578125 3.6875 -4.515625 2.421875 -4.515625 C 1.140625 -4.515625 0.234375 -3.546875 0.234375 -2.203125 C 0.234375 -0.8125 1.203125 0.09375 2.375 0.09375 Z M 3.84375 -2.1875 C 3.84375 -1.390625 3.546875 -0.140625 2.40625 -0.140625 C 1.28125 -0.140625 1 -1.390625 1 -2.1875 C 1 -3.015625 1.265625 -4.265625 2.421875 -4.265625 C 3 -4.265625 3.84375 -3.84375 3.84375 -2.1875 Z "/>
</g>
<g id="glyph-0-2">
<path d="M 1.9375 -4.421875 L 0.09375 -4.421875 L 0.09375 -4.296875 C 0.59375 -4.234375 0.671875 -4.15625 0.671875 -3.6875 L 0.671875 -0.796875 C 0.671875 -0.25 0.59375 -0.171875 0.09375 -0.125 L 0.09375 0 L 1.953125 0 L 1.953125 -0.125 C 1.4375 -0.15625 1.34375 -0.25 1.34375 -0.734375 L 1.34375 -2.046875 L 1.71875 -2.0625 L 3.3125 0 L 4.390625 0 L 4.390625 -0.125 C 4.125 -0.140625 4 -0.21875 3.796875 -0.4375 L 2.421875 -2.125 C 2.703125 -2.1875 3.640625 -2.328125 3.640625 -3.25 C 3.640625 -4.25 2.59375 -4.421875 1.9375 -4.421875 Z M 1.34375 -2.28125 L 1.34375 -3.9375 C 1.34375 -4.109375 1.421875 -4.171875 1.6875 -4.171875 C 2.515625 -4.171875 2.90625 -3.890625 2.90625 -3.25 C 2.90625 -2.46875 2.328125 -2.3125 1.34375 -2.28125 Z "/>
</g>
<g id="glyph-0-3">
<path d="M 4.515625 -3.828125 L 4.515625 -0.796875 C 4.515625 -0.25 4.4375 -0.15625 3.90625 -0.125 L 3.90625 0 L 5.78125 0 L 5.78125 -0.125 C 5.296875 -0.15625 5.203125 -0.25 5.203125 -0.734375 L 5.203125 -3.6875 C 5.203125 -4.15625 5.28125 -4.25 5.78125 -4.296875 L 5.78125 -4.421875 L 4.453125 -4.421875 L 2.96875 -1.046875 L 1.4375 -4.421875 L 0.109375 -4.421875 L 0.109375 -4.296875 C 0.65625 -4.25 0.75 -4.171875 0.75 -3.6875 L 0.75 -0.984375 C 0.75 -0.296875 0.65625 -0.171875 0.09375 -0.125 L 0.09375 0 L 1.671875 0 L 1.671875 -0.125 C 1.15625 -0.15625 1.046875 -0.3125 1.046875 -0.984375 L 1.046875 -3.671875 L 2.71875 0 L 2.8125 0 Z "/>
</g>
<g id="glyph-0-4">
<path d="M 4.703125 -0.125 C 4.40625 -0.140625 4.328125 -0.203125 4.109375 -0.703125 L 2.453125 -4.5 L 2.3125 -4.5 L 0.921875 -1.21875 C 0.515625 -0.234375 0.421875 -0.140625 0.09375 -0.125 L 0.09375 0 L 1.421875 0 L 1.421875 -0.125 C 1.09375 -0.125 0.96875 -0.21875 0.96875 -0.40625 C 0.96875 -0.484375 0.984375 -0.578125 1.015625 -0.65625 L 1.328125 -1.4375 L 3.078125 -1.4375 L 3.34375 -0.796875 C 3.421875 -0.625 3.46875 -0.453125 3.46875 -0.359375 C 3.46875 -0.1875 3.359375 -0.140625 3.015625 -0.125 L 3.015625 0 L 4.703125 0 Z M 1.4375 -1.71875 L 2.203125 -3.546875 L 2.984375 -1.71875 Z "/>
</g>
<g id="glyph-0-5">
<path d="M 2.375 -0.265625 L 1.9375 -0.265625 C 1.453125 -0.265625 1.359375 -0.296875 1.359375 -0.53125 L 1.359375 -3.6875 C 1.359375 -4.15625 1.453125 -4.25 1.984375 -4.296875 L 1.984375 -4.421875 L 0.09375 -4.421875 L 0.09375 -4.296875 C 0.59375 -4.25 0.6875 -4.15625 0.6875 -3.6875 L 0.6875 -0.734375 C 0.6875 -0.265625 0.59375 -0.15625 0.09375 -0.125 L 0.09375 0 L 3.6875 0 L 4.015625 -1.15625 L 3.84375 -1.15625 C 3.703125 -0.859375 3.546875 -0.265625 2.375 -0.265625 Z "/>
</g>
<g id="glyph-0-6">
<path d="M 0.90625 -3.0625 C 0.703125 -3.0625 0.546875 -2.890625 0.546875 -2.6875 C 0.546875 -2.484375 0.703125 -2.328125 0.90625 -2.328125 C 1.109375 -2.328125 1.28125 -2.484375 1.28125 -2.6875 C 1.28125 -2.890625 1.109375 -3.0625 0.90625 -3.0625 Z M 0.90625 -0.671875 C 0.703125 -0.671875 0.546875 -0.5 0.546875 -0.28125 C 0.546875 -0.09375 0.703125 0.078125 0.90625 0.078125 C 1.109375 0.078125 1.28125 -0.09375 1.28125 -0.28125 C 1.28125 -0.5 1.109375 -0.671875 0.90625 -0.671875 Z "/>
</g>
<g id="glyph-0-7">
</g>
<g id="glyph-0-8">
<path d="M 1.21875 -3.953125 C 1.359375 -3.953125 1.421875 -3.859375 1.421875 -3.640625 L 1.421875 -0.625 C 1.421875 -0.1875 1.265625 -0.109375 0.78125 -0.09375 L 0.78125 0 L 2.625 0 L 2.625 -0.09375 C 2.109375 -0.109375 2 -0.171875 2 -0.5 L 2 -4.5 L 1.9375 -4.515625 L 0.734375 -3.90625 L 0.734375 -3.8125 C 1 -3.921875 1.125 -3.953125 1.21875 -3.953125 Z "/>
</g>
<g id="glyph-0-9">
<path d="M 2.375 -1.296875 C 2.375 -0.65625 1.96875 -0.15625 1.453125 -0.15625 C 1.09375 -0.15625 0.875 -0.5625 0.5 -0.5625 C 0.3125 -0.5625 0.21875 -0.484375 0.21875 -0.3125 C 0.21875 -0.0625 0.53125 0.09375 1.03125 0.09375 C 1.734375 0.09375 2.84375 -0.25 2.84375 -1.609375 C 2.84375 -2.65625 2.171875 -3.109375 0.921875 -3.328125 L 1.203125 -3.890625 L 2.515625 -3.890625 C 2.625 -3.890625 2.65625 -3.90625 2.671875 -3.953125 L 2.921875 -4.546875 L 2.859375 -4.59375 C 2.765625 -4.453125 2.703125 -4.421875 2.5625 -4.421875 L 1.15625 -4.421875 L 0.4375 -2.828125 C 0.421875 -2.828125 0.421875 -2.8125 0.421875 -2.796875 C 0.421875 -2.765625 0.453125 -2.75 0.5 -2.75 C 0.921875 -2.75 2.375 -2.53125 2.375 -1.296875 Z "/>
</g>
<g id="glyph-0-10">
<path d="M 4.46875 -2.46875 C 3.703125 -2.46875 3 -1.6875 3 -0.859375 C 3 -0.34375 3.3125 0 3.796875 0 C 4.09375 0 4.34375 -0.109375 4.578125 -0.34375 C 4.9375 -0.703125 5.15625 -1.234375 5.15625 -1.765625 C 5.15625 -2.21875 4.890625 -2.46875 4.46875 -2.46875 Z M 3.90625 -0.203125 C 3.671875 -0.203125 3.5 -0.375 3.5 -0.625 C 3.5 -0.96875 3.84375 -2.265625 4.515625 -2.265625 C 4.765625 -2.265625 4.984375 -2.015625 4.984375 -1.734375 C 4.984375 -1.109375 4.515625 -0.203125 3.90625 -0.203125 Z M 1.875 -4.421875 C 1.125 -4.421875 0.40625 -3.625 0.40625 -2.78125 C 0.40625 -2.3125 0.765625 -1.921875 1.1875 -1.921875 C 2.015625 -1.921875 2.5625 -2.90625 2.5625 -3.65625 C 2.5625 -3.75 2.546875 -3.84375 2.515625 -3.953125 C 2.640625 -3.90625 2.75 -3.890625 2.953125 -3.890625 C 3.25 -3.890625 3.421875 -3.9375 3.6875 -4.09375 L 1.34375 0.09375 L 1.65625 0.09375 L 4.234375 -4.515625 L 3.96875 -4.515625 C 3.609375 -4.171875 3.34375 -4.0625 2.921875 -4.0625 C 2.28125 -4.0625 2.390625 -4.421875 1.875 -4.421875 Z M 1.875 -4.21875 C 1.96875 -4.21875 1.9375 -4.109375 2.328125 -4 C 2.375 -3.875 2.390625 -3.765625 2.390625 -3.671875 C 2.390625 -2.921875 1.84375 -2.15625 1.3125 -2.15625 C 1.078125 -2.15625 0.90625 -2.328125 0.90625 -2.5625 C 0.90625 -3.1875 1.4375 -4.21875 1.875 -4.21875 Z "/>
</g>
</g>
</defs>
<g fill="rgb(51.372549%, 75.686275%, 40.392157%)" fill-opacity="1">
<use xlink:href="#glyph-0-0" x="30" y="26"/>
<use xlink:href="#glyph-0-1" x="35" y="26"/>
<use xlink:href="#glyph-0-2" x="40" y="26"/>
<use xlink:href="#glyph-0-3" x="44" y="26"/>
<use xlink:href="#glyph-0-4" x="50" y="26"/>
<use xlink:href="#glyph-0-5" x="55" y="26"/>
<use xlink:href="#glyph-0-6" x="59" y="26"/>
<use xlink:href="#glyph-0-7" x="61" y="26"/>
<use xlink:href="#glyph-0-8" x="63" y="26"/>
<use xlink:href="#glyph-0-9" x="66" y="26"/>
<use xlink:href="#glyph-0-10" x="69" y="26"/>
</g>
</svg>
