<?xml version="1.0" encoding="UTF-8"?>
<svg xmlns="http://www.w3.org/2000/svg" xmlns:xlink="http://www.w3.org/1999/xlink" width="854" height="480" viewBox="0 0 854 480">
<defs>
<g>
<g id="glyph-0-0">
<path d="M 9.375 -6.625 L 7.390625 -6.625 L 7.390625 -6.4375 C 7.90625 -6.375 8.078125 -6.265625 8.078125 -6 C 8.078125 -5.796875 8.015625 -5.53125 7.921875 -5.25 L 6.671875 -1.859375 L 5.34375 -5.265625 C 5.203125 -5.65625 5.078125 -5.90625 5.078125 -6.078125 C 5.078125 -6.3125 5.3125 -6.421875 5.84375 -6.4375 L 5.84375 -6.625 L 3.1875 -6.625 L 3.1875 -6.4375 C 3.75 -6.421875 3.875 -6.34375 4.1875 -5.53125 L 4.515625 -4.703125 L 3.453125 -1.890625 L 2.015625 -5.65625 C 1.9375 -5.828125 1.90625 -6 1.90625 -6.109375 C 1.90625 -6.328125 2.046875 -6.40625 2.546875 -6.4375 L 2.546875 -6.625 L 0.09375 -6.625 L 0.09375 -6.4375 C 0.609375 -6.375 0.796875 -6.203125 1.125 -5.265625 L 3.0625 0.109375 L 3.203125 0.109375 L 4.75 -4.125 L 6.34375 0.109375 L 6.5 0.109375 C 7.34375 -2.5 7.453125 -2.78125 8.546875 -5.71875 C 8.734375 -6.234375 8.84375 -6.328125 9.375 -6.4375 Z "/>
</g>
<g id="glyph-0-1">
<path d="M 0.96875 -2.765625 L 4.046875 -2.765625 C 3.90625 -3.984375 3.375 -4.59375 2.34375 -4.59375 C 1.125 -4.59375 0.25 -3.625 0.25 -2.140625 C 0.25 -0.765625 0.96875 0.09375 2.125 0.09375 C 3.0625 0.09375 3.8125 -0.484375 4.234375 -1.5625 L 4.078125 -1.640625 C 3.59375 -0.875 3.171875 -0.59375 2.53125 -0.59375 C 1.875 -0.59375 1.03125 -0.984375 0.96875 -2.765625 Z M 0.984375 -3.09375 C 1.09375 -3.875 1.4375 -4.234375 2.046875 -4.234375 C 2.65625 -4.234375 2.90625 -3.953125 3.03125 -3.09375 Z "/>
</g>
<g id="glyph-0-2">
<path d="M 0.625 -3.9375 C 0.859375 -3.9375 0.953125 -3.78125 0.953125 -3.34375 L 0.953125 -1.015625 C 0.953125 -0.296875 0.84375 -0.1875 0.15625 -0.15625 L 0.15625 0 L 2.53125 0 L 2.53125 -0.15625 C 1.875 -0.203125 1.796875 -0.296875 1.796875 -1.015625 L 1.796875 -4.5625 L 1.75 -4.59375 C 1.234375 -4.390625 0.71875 -4.203125 0.203125 -4.046875 L 0.203125 -3.90625 C 0.34375 -3.921875 0.53125 -3.9375 0.625 -3.9375 Z M 1.28125 -6.828125 C 1.015625 -6.828125 0.78125 -6.59375 0.78125 -6.3125 C 0.78125 -6.046875 1 -5.8125 1.28125 -5.8125 C 1.5625 -5.8125 1.796875 -6.03125 1.796875 -6.3125 C 1.796875 -6.59375 1.5625 -6.828125 1.28125 -6.828125 Z "/>
</g>
<g id="glyph-0-3">
<path d="M 0.59375 -0.546875 C 0.59375 -0.328125 0.71875 -0.203125 1.125 -0.015625 C 0.421875 0.515625 0.15625 0.84375 0.15625 1.203125 C 0.15625 1.734375 0.9375 2.1875 1.875 2.1875 C 3.0625 2.1875 4.484375 1.5 4.484375 0.484375 C 4.484375 -0.125 4.015625 -0.546875 3.265625 -0.578125 L 1.984375 -0.640625 C 1.453125 -0.65625 1.203125 -0.75 1.203125 -0.90625 C 1.203125 -1.109375 1.53125 -1.453125 1.796875 -1.546875 C 1.90625 -1.53125 2.265625 -1.484375 2.375 -1.484375 C 3.171875 -1.484375 3.9375 -2.078125 3.9375 -3.046875 C 3.9375 -3.328125 3.875 -3.5625 3.734375 -3.875 L 4.5625 -3.875 L 4.5625 -4.265625 L 3.796875 -4.265625 C 3.1875 -4.265625 2.984375 -4.59375 2.234375 -4.59375 C 1.296875 -4.59375 0.5625 -3.875 0.5625 -2.96875 C 0.5625 -2.34375 0.828125 -1.953125 1.484375 -1.625 C 0.703125 -0.890625 0.59375 -0.796875 0.59375 -0.546875 Z M 1.34375 0.015625 C 1.671875 0.09375 2.46875 0.15625 2.953125 0.15625 C 3.875 0.15625 4.203125 0.28125 4.203125 0.640625 C 4.203125 1.21875 3.4375 1.609375 2.3125 1.609375 C 1.4375 1.609375 0.84375 1.3125 0.84375 0.875 C 0.84375 0.65625 0.921875 0.515625 1.34375 0.015625 Z M 3.15625 -2.65625 C 3.15625 -2.09375 2.875 -1.734375 2.40625 -1.734375 C 2 -1.734375 1.390625 -2.109375 1.390625 -3.375 C 1.390625 -3.96875 1.671875 -4.3125 2.125 -4.3125 C 3.015625 -4.3125 3.15625 -2.984375 3.15625 -2.65625 Z "/>
</g>
<g id="glyph-0-4">
<path d="M 1.578125 -3.4375 C 2 -3.890625 2.296875 -4.0625 2.6875 -4.0625 C 3.1875 -4.0625 3.4375 -3.703125 3.4375 -3 L 3.4375 -1.015625 C 3.4375 -0.34375 3.34375 -0.203125 2.765625 -0.15625 L 2.765625 0 L 4.875 0 L 4.875 -0.15625 C 4.34375 -0.25 4.28125 -0.328125 4.28125 -1.015625 L 4.28125 -3.015625 C 4.28125 -4.0625 3.859375 -4.59375 3.046875 -4.59375 C 2.453125 -4.59375 2.046875 -4.359375 1.578125 -3.765625 L 1.578125 -6.796875 L 1.53125 -6.828125 C 0.96875 -6.625 0.6875 -6.546875 0.109375 -6.390625 L 0.109375 -6.234375 C 0.15625 -6.234375 0.234375 -6.25 0.28125 -6.25 C 0.671875 -6.25 0.734375 -6.15625 0.734375 -5.734375 L 0.734375 -1.015625 C 0.734375 -0.3125 0.6875 -0.234375 0.09375 -0.15625 L 0.09375 0 L 2.265625 0 L 2.265625 -0.15625 C 1.6875 -0.203125 1.578125 -0.328125 1.578125 -1.015625 Z "/>
</g>
<g id="glyph-0-5">
<path d="M 2.59375 -4.5 L 1.578125 -4.5 L 1.578125 -5.65625 C 1.578125 -5.765625 1.5625 -5.796875 1.515625 -5.796875 C 1.4375 -5.703125 1.375 -5.609375 1.3125 -5.515625 C 0.421875 -4.234375 0.171875 -4.453125 0.171875 -4.25 C 0.171875 -4.21875 0.1875 -4.203125 0.203125 -4.1875 L 0.734375 -4.1875 L 0.734375 -1.171875 C 0.734375 -0.328125 1.046875 0.09375 1.625 0.09375 C 2.125 0.09375 2.5 -0.140625 2.828125 -0.65625 L 2.703125 -0.765625 C 2.484375 -0.515625 2.3125 -0.421875 2.09375 -0.421875 C 1.734375 -0.421875 1.578125 -0.6875 1.578125 -1.3125 L 1.578125 -4.1875 L 2.59375 -4.1875 Z "/>
</g>
<g id="glyph-0-6">
<path d="M 2.6875 -4.40625 C 2.453125 -4.40625 2.296875 -4.59375 1.703125 -4.59375 C 0.921875 -4.59375 0.34375 -4.078125 0.34375 -3.359375 C 0.34375 -2.796875 0.671875 -2.40625 1.515625 -1.921875 L 2.09375 -1.59375 C 2.453125 -1.390625 2.625 -1.15625 2.625 -0.84375 C 2.625 -0.40625 2.296875 -0.125 1.796875 -0.125 C 0.765625 -0.125 0.609375 -1.125 0.515625 -1.515625 L 0.359375 -1.515625 L 0.359375 0.046875 L 0.484375 0.046875 C 0.5625 -0.0625 0.59375 -0.078125 0.71875 -0.078125 C 0.96875 -0.078125 1.453125 0.09375 1.90625 0.09375 C 2.6875 0.09375 3.3125 -0.484375 3.3125 -1.1875 C 3.3125 -1.6875 3.078125 -2.015625 2.484375 -2.375 L 1.40625 -3.015625 C 1.125 -3.171875 0.96875 -3.421875 0.96875 -3.6875 C 0.96875 -4.09375 1.28125 -4.375 1.734375 -4.375 C 2.3125 -4.375 2.609375 -4.03125 2.84375 -3.140625 L 2.984375 -3.140625 L 2.953125 -4.5 L 2.84375 -4.5 C 2.78125 -4.453125 2.734375 -4.40625 2.6875 -4.40625 Z "/>
</g>
</g>
</defs>
<g fill="rgb(56.078431%, 73.72549%, 56.078431%)" fill-opacity="1">
<use xlink:href="#glyph-0-0" x="30" y="29"/>
<use xlink:href="#glyph-0-1" x="39" y="29"/>
<use xlink:href="#glyph-0-2" x="43" y="29"/>
<use xlink:href="#glyph-0-3" x="45" y="29"/>
<use xlink:href="#glyph-0-4" x="50" y="29"/>
<use xlink:href="#glyph-0-5" x="55" y="29"/>
<use xlink:href="#glyph-0-6" x="58" y="29"/>
</g>
</svg>
