<?xml version="1.0" encoding="UTF-8"?>
<svg xmlns="http://www.w3.org/2000/svg" xmlns:xlink="http://www.w3.org/1999/xlink" width="854" height="480" viewBox="0 0 854 480">
<defs>
<g>
<g id="glyph-0-0">
<path d="M 1.40625 -3.453125 L 1.40625 -0.671875 C 1.40625 -0.1875 1.34375 -0.140625 0.875 -0.109375 L 0.875 0 L 2.5 0 L 2.5 -0.109375 C 2.046875 -0.125 1.96875 -0.203125 1.96875 -0.609375 L 1.96875 -3.453125 L 2.265625 -3.453125 C 2.90625 -3.453125 3.03125 -3.34375 3.15625 -2.734375 L 3.28125 -2.734375 L 3.25 -3.6875 L 0.109375 -3.6875 L 0.078125 -2.734375 L 0.21875 -2.734375 C 0.34375 -3.34375 0.484375 -3.453125 1.09375 -3.453125 Z "/>
</g>
<g id="glyph-0-1">
<path d="M 1.671875 -2.015625 C 1.8125 -2.015625 1.890625 -2.109375 1.890625 -2.265625 C 1.890625 -2.453125 1.78125 -2.5625 1.578125 -2.5625 C 1.359375 -2.5625 1.1875 -2.4375 0.921875 -2.03125 L 0.921875 -2.546875 L 0.890625 -2.5625 C 0.59375 -2.4375 0.390625 -2.359375 0.0625 -2.265625 L 0.0625 -2.171875 C 0.140625 -2.1875 0.1875 -2.1875 0.265625 -2.1875 C 0.40625 -2.1875 0.453125 -2.109375 0.453125 -1.859375 L 0.453125 -0.46875 C 0.453125 -0.1875 0.40625 -0.15625 0.0625 -0.078125 L 0.0625 0 L 1.390625 0 L 1.390625 -0.078125 C 1.015625 -0.09375 0.921875 -0.1875 0.921875 -0.5 L 0.921875 -1.75 C 0.921875 -1.9375 1.15625 -2.203125 1.3125 -2.203125 C 1.390625 -2.203125 1.53125 -2.015625 1.671875 -2.015625 Z "/>
</g>
<g id="glyph-0-2">
<path d="M 0.140625 -0.546875 C 0.140625 -0.1875 0.390625 0.0625 0.71875 0.0625 C 0.96875 0.0625 1.203125 -0.0625 1.53125 -0.34375 C 1.5625 -0.0625 1.65625 0.0625 1.890625 0.0625 C 2.078125 0.0625 2.203125 -0.015625 2.390625 -0.21875 L 2.390625 -0.359375 C 2.296875 -0.296875 2.234375 -0.265625 2.140625 -0.265625 C 2.015625 -0.265625 1.984375 -0.34375 1.984375 -0.578125 L 1.984375 -1.671875 C 1.984375 -2.21875 1.828125 -2.5625 1.171875 -2.5625 C 0.65625 -2.5625 0.25 -2.28125 0.25 -1.9375 C 0.25 -1.8125 0.359375 -1.703125 0.484375 -1.703125 C 0.625 -1.703125 0.734375 -1.8125 0.734375 -1.9375 C 0.734375 -1.984375 0.703125 -2.078125 0.703125 -2.15625 C 0.703125 -2.296875 0.890625 -2.421875 1.109375 -2.421875 C 1.375 -2.421875 1.53125 -2.265625 1.53125 -1.96875 L 1.53125 -1.625 C 0.84375 -1.34375 0.140625 -1.140625 0.140625 -0.546875 Z M 1.53125 -0.6875 C 1.53125 -0.515625 1.5 -0.46875 1.390625 -0.390625 C 1.25 -0.3125 1.09375 -0.265625 0.984375 -0.265625 C 0.84375 -0.265625 0.625 -0.390625 0.625 -0.71875 C 0.625 -1.046875 0.859375 -1.25 1.53125 -1.484375 Z "/>
</g>
<g id="glyph-0-3">
<path d="M 0.34375 -2.1875 C 0.484375 -2.1875 0.53125 -2.109375 0.53125 -1.859375 L 0.53125 -0.5625 C 0.53125 -0.171875 0.46875 -0.109375 0.09375 -0.078125 L 0.09375 0 L 1.40625 0 L 1.40625 -0.078125 C 1.046875 -0.109375 1 -0.171875 1 -0.5625 L 1 -2.546875 L 0.96875 -2.5625 C 0.6875 -2.4375 0.40625 -2.34375 0.109375 -2.25 L 0.109375 -2.171875 C 0.1875 -2.1875 0.296875 -2.1875 0.34375 -2.1875 Z M 0.71875 -3.796875 C 0.5625 -3.796875 0.4375 -3.671875 0.4375 -3.515625 C 0.4375 -3.359375 0.5625 -3.234375 0.71875 -3.234375 C 0.875 -3.234375 1 -3.359375 1 -3.515625 C 1 -3.671875 0.875 -3.796875 0.71875 -3.796875 Z "/>
</g>
<g id="glyph-0-4">
<path d="M 0.0625 -2.21875 C 0.09375 -2.234375 0.140625 -2.234375 0.203125 -2.234375 C 0.359375 -2.234375 0.40625 -2.15625 0.40625 -1.875 L 0.40625 -0.5 C 0.40625 -0.1875 0.34375 -0.109375 0.0625 -0.078125 L 0.0625 0 L 1.25 0 L 1.25 -0.078125 C 0.96875 -0.109375 0.875 -0.171875 0.875 -0.375 L 0.875 -1.9375 C 1.140625 -2.1875 1.265625 -2.25 1.453125 -2.25 C 1.71875 -2.25 1.859375 -2.078125 1.859375 -1.71875 L 1.859375 -0.546875 C 1.859375 -0.203125 1.78125 -0.109375 1.5 -0.078125 L 1.5 0 L 2.671875 0 L 2.671875 -0.078125 C 2.390625 -0.109375 2.328125 -0.171875 2.328125 -0.453125 L 2.328125 -1.71875 C 2.328125 -2.25 2.078125 -2.5625 1.671875 -2.5625 C 1.40625 -2.5625 1.234375 -2.46875 0.859375 -2.109375 L 0.859375 -2.546875 L 0.828125 -2.5625 C 0.546875 -2.453125 0.359375 -2.390625 0.0625 -2.3125 Z "/>
</g>
</g>
</defs>
<g fill="rgb(100%, 100%, 100%)" fill-opacity="1">
<use xlink:href="#glyph-0-0" x="30" y="25"/>
<use xlink:href="#glyph-0-1" x="33" y="25"/>
<use xlink:href="#glyph-0-2" x="35" y="25"/>
<use xlink:href="#glyph-0-3" x="37" y="25"/>
<use xlink:href="#glyph-0-4" x="38" y="25"/>
</g>
</svg>
