<?xml version="1.0" encoding="UTF-8"?>
<svg xmlns="http://www.w3.org/2000/svg" xmlns:xlink="http://www.w3.org/1999/xlink" width="854" height="480" viewBox="0 0 854 480">
<defs>
<g>
<g id="glyph-0-0">
<path d="M 6.375 -7.546875 C 6.375 -7.359375 6.3125 -7.265625 5.9375 -6.875 L 3.28125 -4.21875 L 3.28125 -6.828125 C 3.28125 -7.703125 3.46875 -7.890625 4.375 -7.953125 L 4.375 -8.265625 L 0.25 -8.265625 L 0.25 -7.953125 C 1.09375 -7.90625 1.3125 -7.71875 1.3125 -7.09375 L 1.3125 -1.171875 C 1.3125 -0.546875 1.125 -0.40625 0.25 -0.3125 L 0.25 0 L 4.359375 0 L 4.359375 -0.3125 C 3.484375 -0.421875 3.28125 -0.578125 3.28125 -1.171875 L 3.28125 -3.5625 L 3.609375 -3.875 L 5.84375 -1.09375 C 6.078125 -0.8125 6.140625 -0.703125 6.140625 -0.5625 C 6.140625 -0.40625 5.96875 -0.34375 5.5625 -0.3125 C 5.5 -0.3125 5.34375 -0.3125 5.171875 -0.3125 L 5.171875 0 L 9.28125 0 L 9.28125 -0.3125 C 8.96875 -0.3125 8.828125 -0.375 8.671875 -0.5625 L 4.953125 -5.1875 C 7.25 -7.546875 7.6875 -7.859375 8.875 -7.953125 L 8.875 -8.265625 L 5.34375 -8.265625 L 5.34375 -7.953125 C 6.140625 -7.90625 6.375 -7.875 6.375 -7.546875 Z "/>
</g>
<g id="glyph-0-1">
<path d="M 3.0625 -5.78125 C 1.515625 -5.78125 0.3125 -4.5 0.3125 -2.828125 C 0.3125 -1.09375 1.46875 0.171875 3.0625 0.171875 C 4.640625 0.171875 5.8125 -1.09375 5.8125 -2.796875 C 5.8125 -4.515625 4.640625 -5.78125 3.0625 -5.78125 Z M 3.078125 -5.40625 C 3.78125 -5.40625 4.015625 -4.734375 4.015625 -2.71875 C 4.015625 -0.84375 3.78125 -0.203125 3.0625 -0.203125 C 2.34375 -0.203125 2.109375 -0.828125 2.109375 -2.609375 C 2.109375 -4.765625 2.328125 -5.40625 3.078125 -5.40625 Z M 1.84375 -6.453125 L 2.53125 -6.453125 L 4.265625 -7.53125 C 4.65625 -7.765625 4.75 -7.890625 4.75 -8.171875 C 4.75 -8.484375 4.515625 -8.71875 4.171875 -8.71875 C 3.9375 -8.71875 3.734375 -8.609375 3.515625 -8.375 Z "/>
</g>
<g id="glyph-0-2">
<path d="M 4.140625 0.15625 C 4.703125 0 5.015625 -0.046875 5.765625 -0.140625 L 6.53125 -0.25 L 6.53125 -0.53125 C 5.96875 -0.5625 5.796875 -0.71875 5.796875 -1.234375 L 5.796875 -8.265625 L 3.171875 -8.265625 L 3.171875 -7.96875 C 4 -7.90625 4.109375 -7.8125 4.109375 -7.265625 L 4.109375 -5.015625 C 3.578125 -5.578125 3.21875 -5.78125 2.65625 -5.78125 C 1.3125 -5.78125 0.3125 -4.46875 0.3125 -2.703125 C 0.3125 -1.03125 1.234375 0.171875 2.515625 0.171875 C 3.171875 0.171875 3.5625 -0.03125 4.140625 -0.640625 Z M 3.0625 -0.515625 C 2.421875 -0.515625 2.109375 -1.25 2.109375 -2.796875 C 2.109375 -4.375 2.4375 -5.09375 3.15625 -5.09375 C 3.5625 -5.09375 3.9375 -4.796875 4.109375 -4.34375 L 4.109375 -1.375 C 4.109375 -1.25 3.6875 -0.515625 3.0625 -0.515625 Z "/>
</g>
<g id="glyph-0-3">
<path d="M 3.0625 -5.78125 C 1.515625 -5.78125 0.3125 -4.5 0.3125 -2.828125 C 0.3125 -1.09375 1.46875 0.171875 3.0625 0.171875 C 4.640625 0.171875 5.8125 -1.09375 5.8125 -2.796875 C 5.8125 -4.515625 4.640625 -5.78125 3.0625 -5.78125 Z M 3.078125 -5.40625 C 3.78125 -5.40625 4.015625 -4.734375 4.015625 -2.71875 C 4.015625 -0.84375 3.78125 -0.203125 3.0625 -0.203125 C 2.34375 -0.203125 2.109375 -0.828125 2.109375 -2.609375 C 2.109375 -4.765625 2.328125 -5.40625 3.078125 -5.40625 Z "/>
</g>
<g id="glyph-0-4">
<path d="M 5.78125 -5.640625 L 3.9375 -5.640625 L 3.9375 -5.34375 C 4.453125 -5.3125 4.609375 -5.234375 4.609375 -4.9375 C 4.609375 -4.796875 4.5625 -4.609375 4.46875 -4.390625 L 3.59375 -2.15625 L 2.625 -4.640625 C 2.546875 -4.875 2.515625 -4.953125 2.515625 -5.015625 C 2.515625 -5.203125 2.640625 -5.296875 2.9375 -5.3125 C 2.96875 -5.3125 3.0625 -5.328125 3.171875 -5.34375 L 3.171875 -5.640625 L 0.109375 -5.640625 L 0.109375 -5.34375 C 0.390625 -5.296875 0.46875 -5.265625 0.53125 -5.15625 C 0.5625 -5.15625 1.140625 -3.953125 1.328125 -3.453125 L 2.796875 0.171875 L 3.109375 0.171875 L 5.078125 -4.671875 C 5.296875 -5.203125 5.40625 -5.296875 5.78125 -5.34375 Z "/>
</g>
<g id="glyph-0-5">
<path d="M 1.796875 -4.9375 C 1.796875 -5.1875 2.140625 -5.390625 2.5625 -5.390625 C 3.28125 -5.390625 3.59375 -5.0625 3.59375 -4.3125 L 3.59375 -3.421875 C 2.171875 -3 0.3125 -2.5 0.3125 -1.125 C 0.3125 -0.375 0.875 0.171875 1.65625 0.171875 C 2.359375 0.171875 2.921875 -0.078125 3.59375 -0.6875 C 3.734375 -0.0625 4 0.171875 4.59375 0.171875 C 5.125 0.171875 5.5 -0.03125 5.96875 -0.53125 L 5.78125 -0.78125 L 5.65625 -0.65625 C 5.625 -0.625 5.578125 -0.609375 5.515625 -0.609375 C 5.359375 -0.609375 5.265625 -0.71875 5.265625 -0.921875 L 5.265625 -4.109375 C 5.265625 -5.125 4.34375 -5.78125 2.84375 -5.78125 C 1.46875 -5.78125 0.53125 -5.15625 0.53125 -4.234375 C 0.53125 -3.734375 0.828125 -3.4375 1.328125 -3.4375 C 1.828125 -3.4375 2.15625 -3.734375 2.15625 -4.140625 C 2.15625 -4.515625 1.796875 -4.765625 1.796875 -4.9375 Z M 3.578125 -1.21875 C 3.25 -0.84375 3 -0.703125 2.71875 -0.703125 C 2.34375 -0.703125 2.09375 -1.03125 2.09375 -1.515625 C 2.09375 -2.21875 2.609375 -2.734375 3.578125 -3 Z M 1.890625 -6.453125 L 2.578125 -6.453125 L 4.3125 -7.53125 C 4.703125 -7.765625 4.796875 -7.890625 4.796875 -8.171875 C 4.796875 -8.484375 4.5625 -8.71875 4.21875 -8.71875 C 3.984375 -8.71875 3.78125 -8.609375 3.5625 -8.375 Z "/>
</g>
<g id="glyph-0-6">
<path d="M 3.609375 -4.953125 C 4.046875 -4.953125 4.25 -4.625 4.25 -3.953125 L 4.25 -0.984375 C 4.25 -0.53125 4.09375 -0.34375 3.671875 -0.296875 L 3.671875 0 L 6.546875 0 L 6.546875 -0.296875 C 6.078125 -0.328125 5.953125 -0.46875 5.953125 -0.984375 L 5.953125 -4.0625 C 5.953125 -5.109375 5.296875 -5.78125 4.296875 -5.78125 C 3.5625 -5.78125 3 -5.4375 2.546875 -4.71875 L 2.546875 -5.640625 L 0.21875 -5.640625 L 0.21875 -5.34375 C 0.75 -5.25 0.875 -5.125 0.875 -4.625 L 0.875 -1.03125 C 0.875 -0.515625 0.765625 -0.40625 0.21875 -0.296875 L 0.21875 0 L 3.171875 0 L 3.171875 -0.296875 C 2.71875 -0.359375 2.5625 -0.53125 2.5625 -0.984375 L 2.5625 -4.25 C 2.5625 -4.390625 3.109375 -4.953125 3.609375 -4.953125 Z "/>
</g>
<g id="glyph-0-7">
<path d="M 2.640625 -5.640625 L 0.296875 -5.640625 L 0.296875 -5.34375 C 0.828125 -5.234375 0.9375 -5.125 0.9375 -4.625 L 0.9375 -1.03125 C 0.9375 -0.53125 0.859375 -0.421875 0.296875 -0.296875 L 0.296875 0 L 3.21875 0 L 3.21875 -0.296875 C 2.78125 -0.359375 2.640625 -0.53125 2.640625 -0.984375 Z M 0.328125 -6.453125 L 1.015625 -6.453125 L 2.75 -7.53125 C 3.140625 -7.765625 3.234375 -7.890625 3.234375 -8.171875 C 3.234375 -8.484375 3 -8.71875 2.65625 -8.71875 C 2.421875 -8.71875 2.21875 -8.609375 2 -8.375 Z "/>
</g>
<g id="glyph-0-8">
</g>
<g id="glyph-0-9">
<path d="M 1.796875 -4.9375 C 1.796875 -5.1875 2.140625 -5.390625 2.5625 -5.390625 C 3.28125 -5.390625 3.59375 -5.0625 3.59375 -4.3125 L 3.59375 -3.421875 C 2.171875 -3 0.3125 -2.5 0.3125 -1.125 C 0.3125 -0.375 0.875 0.171875 1.65625 0.171875 C 2.359375 0.171875 2.921875 -0.078125 3.59375 -0.6875 C 3.734375 -0.0625 4 0.171875 4.59375 0.171875 C 5.125 0.171875 5.5 -0.03125 5.96875 -0.53125 L 5.78125 -0.78125 L 5.65625 -0.65625 C 5.625 -0.625 5.578125 -0.609375 5.515625 -0.609375 C 5.359375 -0.609375 5.265625 -0.71875 5.265625 -0.921875 L 5.265625 -4.109375 C 5.265625 -5.125 4.34375 -5.78125 2.84375 -5.78125 C 1.46875 -5.78125 0.53125 -5.15625 0.53125 -4.234375 C 0.53125 -3.734375 0.828125 -3.4375 1.328125 -3.4375 C 1.828125 -3.4375 2.15625 -3.734375 2.15625 -4.140625 C 2.15625 -4.515625 1.796875 -4.765625 1.796875 -4.9375 Z M 3.578125 -1.21875 C 3.25 -0.84375 3 -0.703125 2.71875 -0.703125 C 2.34375 -0.703125 2.09375 -1.03125 2.09375 -1.515625 C 2.09375 -2.21875 2.609375 -2.734375 3.578125 -3 Z "/>
</g>
<g id="glyph-0-10">
<path d="M 3.703125 -5.640625 L 2.546875 -5.640625 L 2.546875 -7.703125 L 2.25 -7.703125 C 1.5 -6.640625 1.015625 -6.09375 0.21875 -5.421875 L 0.21875 -5.09375 L 0.859375 -5.09375 L 0.859375 -1.140625 C 0.859375 -0.34375 1.375 0.140625 2.21875 0.140625 C 3.046875 0.140625 3.53125 -0.21875 4.03125 -1.21875 L 3.734375 -1.359375 C 3.484375 -0.890625 3.28125 -0.71875 3.03125 -0.71875 C 2.6875 -0.71875 2.546875 -0.921875 2.546875 -1.421875 L 2.546875 -5.09375 L 3.703125 -5.09375 Z "/>
</g>
<g id="glyph-0-11">
<path d="M 1.9375 -3.15625 C 1.9375 -6.390625 2.375 -7.25 3.734375 -8.15625 L 3.734375 -8.484375 C 2.984375 -8.078125 2.640625 -7.8125 2.15625 -7.3125 C 1.125 -6.1875 0.5625 -4.734375 0.5625 -3.171875 C 0.5625 -2.046875 0.875 -0.96875 1.453125 -0.03125 C 2.015625 0.84375 2.546875 1.328125 3.734375 2.046875 L 3.734375 1.703125 C 2.96875 1.21875 1.9375 0.703125 1.9375 -3.15625 Z "/>
</g>
<g id="glyph-0-12">
<path d="M 1.265625 -1.109375 C 1.265625 -0.578125 0.953125 -0.328125 0.25 -0.3125 L 0.25 0 L 4.109375 0 C 6.75 0 8.5 -1.6875 8.5 -4.21875 C 8.5 -6.734375 6.796875 -8.265625 3.96875 -8.265625 L 0.25 -8.265625 L 0.25 -7.953125 C 1.03125 -7.875 1.265625 -7.703125 1.265625 -7.140625 Z M 6.375 -4.03125 C 6.375 -1.203125 5.21875 -0.421875 3.953125 -0.421875 C 3.390625 -0.421875 3.234375 -0.59375 3.234375 -1.140625 L 3.234375 -7.421875 C 3.234375 -7.703125 3.484375 -7.84375 3.953125 -7.84375 C 5.0625 -7.84375 6.375 -7.03125 6.375 -4.03125 Z "/>
</g>
<g id="glyph-0-13">
<path d="M 4.3125 -0.375 C 3.53125 -0.375 3.296875 -0.53125 3.296875 -1.0625 L 3.296875 -4.015625 C 4.625 -4.015625 5.125 -3.546875 5.28125 -2.125 L 5.59375 -2.125 L 5.59375 -6.25 L 5.28125 -6.25 C 5.09375 -4.890625 4.625 -4.4375 3.34375 -4.4375 L 3.296875 -4.4375 L 3.296875 -7.265625 C 3.296875 -7.734375 3.453125 -7.84375 4.09375 -7.84375 C 6.078125 -7.84375 6.6875 -7.421875 6.984375 -5.796875 L 7.296875 -5.796875 L 7.296875 -8.265625 L 0.25 -8.265625 L 0.25 -7.953125 C 1.09375 -7.90625 1.3125 -7.703125 1.3125 -7.09375 L 1.3125 -1.171875 C 1.3125 -0.53125 1.15625 -0.40625 0.25 -0.3125 L 0.25 0 L 7.390625 0 L 7.875 -2.546875 L 7.53125 -2.546875 C 6.953125 -1.28125 6.25 -0.375 4.3125 -0.375 Z "/>
</g>
<g id="glyph-0-14">
<path d="M 5.03125 -1.328125 C 4.578125 -0.8125 4.265625 -0.640625 3.765625 -0.640625 C 2.703125 -0.640625 2.03125 -1.703125 2.03125 -3.375 C 2.03125 -4.625 2.421875 -5.40625 3.046875 -5.40625 C 3.25 -5.40625 3.4375 -5.296875 3.5 -5.171875 C 3.5625 -5.0625 3.5625 -5.0625 3.5625 -4.546875 C 3.578125 -3.953125 3.796875 -3.671875 4.25 -3.671875 C 4.765625 -3.671875 5.078125 -3.953125 5.078125 -4.4375 C 5.078125 -5.1875 4.265625 -5.78125 3.1875 -5.78125 C 1.53125 -5.78125 0.3125 -4.484375 0.3125 -2.71875 C 0.3125 -1.03125 1.40625 0.171875 2.921875 0.171875 C 3.859375 0.171875 4.546875 -0.203125 5.25 -1.109375 Z "/>
</g>
<g id="glyph-0-15">
<path d="M 2.640625 -5.640625 L 0.296875 -5.640625 L 0.296875 -5.34375 C 0.828125 -5.234375 0.9375 -5.125 0.9375 -4.625 L 0.9375 -1.03125 C 0.9375 -0.53125 0.859375 -0.421875 0.296875 -0.296875 L 0.296875 0 L 3.234375 0 L 3.234375 -0.296875 C 2.8125 -0.359375 2.640625 -0.53125 2.640625 -0.984375 Z M 1.78125 -8.4375 C 1.265625 -8.4375 0.828125 -8.015625 0.828125 -7.5 C 0.828125 -6.953125 1.234375 -6.546875 1.765625 -6.546875 C 2.3125 -6.546875 2.71875 -6.953125 2.71875 -7.484375 C 2.71875 -8.015625 2.3125 -8.4375 1.78125 -8.4375 Z "/>
</g>
<g id="glyph-0-16">
<path d="M 1.9375 -1.953125 C 0.96875 -1.625 0.46875 -1.15625 0.46875 -0.53125 C 0.46875 -0.03125 0.703125 0.203125 1.484375 0.46875 C 0.703125 0.59375 0.3125 0.890625 0.3125 1.390625 C 0.3125 2.109375 1.21875 2.515625 2.765625 2.515625 C 4.796875 2.515625 5.859375 1.875 5.859375 0.671875 C 5.859375 -0.265625 5.109375 -0.828125 3.859375 -0.828125 L 3.0625 -0.828125 C 2.09375 -0.828125 1.84375 -0.921875 1.84375 -1.265625 C 1.84375 -1.625 2.1875 -1.890625 2.671875 -1.890625 L 3.21875 -1.875 C 4.921875 -1.875 5.359375 -2.953125 5.359375 -3.671875 C 5.359375 -4.15625 5.203125 -4.515625 4.859375 -4.859375 L 5.859375 -4.859375 L 5.859375 -5.515625 L 4.265625 -5.515625 C 3.734375 -5.703125 3.390625 -5.78125 2.890625 -5.78125 C 1.4375 -5.78125 0.421875 -4.96875 0.421875 -3.8125 C 0.421875 -3.03125 0.859375 -2.40625 1.9375 -1.953125 Z M 3.921875 0.640625 C 4.578125 0.640625 4.90625 0.84375 4.90625 1.25 C 4.90625 1.8125 4.234375 2.125 3.015625 2.125 C 1.9375 2.125 1.375 1.84375 1.375 1.3125 C 1.375 1.046875 1.46875 0.921875 1.8125 0.640625 Z M 2.890625 -5.40625 C 3.46875 -5.40625 3.703125 -4.9375 3.703125 -3.796875 C 3.703125 -2.65625 3.46875 -2.21875 2.890625 -2.21875 C 2.3125 -2.21875 2.09375 -2.65625 2.09375 -3.796875 C 2.09375 -4.953125 2.328125 -5.40625 2.890625 -5.40625 Z "/>
</g>
<g id="glyph-0-17">
<path d="M 0.328125 -8.484375 L 0.328125 -8.140625 C 1.140625 -7.609375 2.125 -7.09375 2.125 -3.28125 C 2.125 -0.078125 1.703125 0.8125 0.328125 1.71875 L 0.328125 2.046875 C 1.09375 1.65625 1.421875 1.390625 1.890625 0.890625 C 2.9375 -0.234375 3.5 -1.6875 3.5 -3.25 C 3.5 -6.390625 1.40625 -7.828125 0.328125 -8.484375 Z "/>
</g>
</g>
</defs>
<g fill="rgb(100%, 100%, 100%)" fill-opacity="1">
<use xlink:href="#glyph-0-0" x="30" y="31"/>
<use xlink:href="#glyph-0-1" x="39" y="31"/>
<use xlink:href="#glyph-0-2" x="45" y="31"/>
<use xlink:href="#glyph-0-3" x="52" y="31"/>
<use xlink:href="#glyph-0-4" x="58" y="31"/>
<use xlink:href="#glyph-0-5" x="64" y="31"/>
<use xlink:href="#glyph-0-6" x="70" y="31"/>
<use xlink:href="#glyph-0-7" x="77" y="31"/>
<use xlink:href="#glyph-0-8" x="81" y="31"/>
<use xlink:href="#glyph-0-2" x="84" y="31"/>
<use xlink:href="#glyph-0-9" x="91" y="31"/>
<use xlink:href="#glyph-0-10" x="97" y="31"/>
<use xlink:href="#glyph-0-8" x="101" y="31"/>
<use xlink:href="#glyph-0-11" x="104" y="31"/>
<use xlink:href="#glyph-0-12" x="108" y="31"/>
<use xlink:href="#glyph-0-9" x="117" y="31"/>
<use xlink:href="#glyph-0-10" x="123" y="31"/>
<use xlink:href="#glyph-0-9" x="127" y="31"/>
<use xlink:href="#glyph-0-8" x="133" y="31"/>
<use xlink:href="#glyph-0-13" x="136" y="31"/>
<use xlink:href="#glyph-0-6" x="144" y="31"/>
<use xlink:href="#glyph-0-14" x="151" y="31"/>
<use xlink:href="#glyph-0-3" x="156" y="31"/>
<use xlink:href="#glyph-0-2" x="162" y="31"/>
<use xlink:href="#glyph-0-15" x="169" y="31"/>
<use xlink:href="#glyph-0-6" x="173" y="31"/>
<use xlink:href="#glyph-0-16" x="180" y="31"/>
<use xlink:href="#glyph-0-17" x="186" y="31"/>
</g>
</svg>
