<?xml version="1.0" encoding="UTF-8"?>
<svg xmlns="http://www.w3.org/2000/svg" xmlns:xlink="http://www.w3.org/1999/xlink" width="1920" height="1080" viewBox="0 0 1920 1080">
<defs>
<g>
<g id="glyph-0-0">
<path d="M 1.328125 -5.140625 C 1.5625 -5.140625 1.65625 -4.9375 1.65625 -4.53125 L 1.65625 -1.109375 C 1.65625 -0.375 1.46875 -0.21875 0.59375 -0.21875 L 0.59375 0 L 3.921875 0 L 3.921875 -0.21875 C 3.125 -0.234375 2.96875 -0.359375 2.96875 -1.046875 L 2.96875 -6.109375 L 2.8125 -6.109375 L 0.578125 -5.140625 L 0.578125 -4.921875 C 0.71875 -4.96875 1.109375 -5.140625 1.328125 -5.140625 Z "/>
</g>
<g id="glyph-0-1">
<path d="M 1.109375 -1.390625 C 0.703125 -1.390625 0.359375 -1.046875 0.359375 -0.640625 C 0.359375 -0.21875 0.6875 0.109375 1.109375 0.109375 C 1.53125 0.109375 1.859375 -0.21875 1.859375 -0.625 C 1.859375 -1.046875 1.53125 -1.390625 1.109375 -1.390625 Z "/>
</g>
<g id="glyph-0-2">
</g>
<g id="glyph-0-3">
<path d="M 4.640625 -5.5 C 4.640625 -5.359375 4.59375 -5.28125 4.328125 -5 L 2.390625 -3.0625 L 2.390625 -4.96875 C 2.390625 -5.59375 2.53125 -5.75 3.1875 -5.78125 L 3.1875 -6.015625 L 0.171875 -6.015625 L 0.171875 -5.78125 C 0.796875 -5.75 0.953125 -5.625 0.953125 -5.15625 L 0.953125 -0.859375 C 0.953125 -0.40625 0.8125 -0.296875 0.171875 -0.21875 L 0.171875 0 L 3.171875 0 L 3.171875 -0.21875 C 2.53125 -0.296875 2.390625 -0.421875 2.390625 -0.859375 L 2.390625 -2.59375 L 2.625 -2.8125 L 4.25 -0.796875 C 4.421875 -0.59375 4.46875 -0.5 4.46875 -0.40625 C 4.46875 -0.296875 4.34375 -0.25 4.046875 -0.234375 C 4 -0.234375 3.890625 -0.234375 3.765625 -0.21875 L 3.765625 0 L 6.75 0 L 6.75 -0.21875 C 6.53125 -0.234375 6.421875 -0.28125 6.3125 -0.40625 L 3.59375 -3.765625 C 5.265625 -5.5 5.59375 -5.71875 6.453125 -5.78125 L 6.453125 -6.015625 L 3.890625 -6.015625 L 3.890625 -5.78125 C 4.46875 -5.75 4.640625 -5.71875 4.640625 -5.5 Z "/>
</g>
<g id="glyph-0-4">
<path d="M 2.234375 -4.203125 C 1.109375 -4.203125 0.21875 -3.265625 0.21875 -2.0625 C 0.21875 -0.796875 1.0625 0.125 2.234375 0.125 C 3.375 0.125 4.234375 -0.796875 4.234375 -2.03125 C 4.234375 -3.28125 3.375 -4.203125 2.234375 -4.203125 Z M 2.234375 -3.921875 C 2.75 -3.921875 2.921875 -3.4375 2.921875 -1.984375 C 2.921875 -0.609375 2.75 -0.15625 2.234375 -0.15625 C 1.703125 -0.15625 1.53125 -0.609375 1.53125 -1.90625 C 1.53125 -3.46875 1.6875 -3.921875 2.234375 -3.921875 Z M 1.34375 -4.6875 L 1.84375 -4.6875 L 3.109375 -5.484375 C 3.390625 -5.65625 3.453125 -5.75 3.453125 -5.953125 C 3.453125 -6.171875 3.296875 -6.34375 3.03125 -6.34375 C 2.859375 -6.34375 2.71875 -6.265625 2.5625 -6.09375 Z "/>
</g>
<g id="glyph-0-5">
<path d="M 3.015625 0.109375 C 3.421875 0 3.640625 -0.03125 4.203125 -0.109375 L 4.75 -0.171875 L 4.75 -0.375 C 4.34375 -0.40625 4.21875 -0.53125 4.21875 -0.890625 L 4.21875 -6.015625 L 2.3125 -6.015625 L 2.3125 -5.796875 C 2.90625 -5.75 2.984375 -5.6875 2.984375 -5.28125 L 2.984375 -3.65625 C 2.609375 -4.0625 2.34375 -4.203125 1.921875 -4.203125 C 0.953125 -4.203125 0.21875 -3.25 0.21875 -1.96875 C 0.21875 -0.75 0.890625 0.125 1.828125 0.125 C 2.296875 0.125 2.59375 -0.015625 3.015625 -0.46875 Z M 2.234375 -0.375 C 1.765625 -0.375 1.53125 -0.90625 1.53125 -2.03125 C 1.53125 -3.1875 1.78125 -3.703125 2.296875 -3.703125 C 2.59375 -3.703125 2.859375 -3.5 2.984375 -3.15625 L 2.984375 -1 C 2.984375 -0.90625 2.6875 -0.375 2.234375 -0.375 Z "/>
</g>
<g id="glyph-0-6">
<path d="M 2.234375 -4.203125 C 1.109375 -4.203125 0.21875 -3.265625 0.21875 -2.0625 C 0.21875 -0.796875 1.0625 0.125 2.234375 0.125 C 3.375 0.125 4.234375 -0.796875 4.234375 -2.03125 C 4.234375 -3.28125 3.375 -4.203125 2.234375 -4.203125 Z M 2.234375 -3.921875 C 2.75 -3.921875 2.921875 -3.4375 2.921875 -1.984375 C 2.921875 -0.609375 2.75 -0.15625 2.234375 -0.15625 C 1.703125 -0.15625 1.53125 -0.609375 1.53125 -1.90625 C 1.53125 -3.46875 1.6875 -3.921875 2.234375 -3.921875 Z "/>
</g>
<g id="glyph-0-7">
<path d="M 4.203125 -4.09375 L 2.859375 -4.09375 L 2.859375 -3.890625 C 3.25 -3.875 3.359375 -3.8125 3.359375 -3.59375 C 3.359375 -3.5 3.3125 -3.359375 3.25 -3.1875 L 2.609375 -1.578125 L 1.90625 -3.375 C 1.84375 -3.546875 1.828125 -3.59375 1.828125 -3.65625 C 1.828125 -3.78125 1.921875 -3.84375 2.140625 -3.875 C 2.15625 -3.875 2.234375 -3.875 2.296875 -3.890625 L 2.296875 -4.09375 L 0.078125 -4.09375 L 0.078125 -3.890625 C 0.28125 -3.859375 0.34375 -3.828125 0.390625 -3.75 C 0.40625 -3.75 0.828125 -2.875 0.96875 -2.5 L 2.03125 0.125 L 2.265625 0.125 L 3.6875 -3.390625 C 3.84375 -3.78125 3.921875 -3.859375 4.203125 -3.890625 Z "/>
</g>
<g id="glyph-0-8">
<path d="M 1.3125 -3.59375 C 1.3125 -3.78125 1.5625 -3.921875 1.859375 -3.921875 C 2.375 -3.921875 2.609375 -3.6875 2.609375 -3.140625 L 2.609375 -2.484375 C 1.578125 -2.171875 0.21875 -1.828125 0.21875 -0.8125 C 0.21875 -0.28125 0.640625 0.125 1.203125 0.125 C 1.71875 0.125 2.125 -0.046875 2.609375 -0.5 C 2.71875 -0.046875 2.90625 0.125 3.34375 0.125 C 3.71875 0.125 4 -0.015625 4.34375 -0.375 L 4.203125 -0.5625 L 4.109375 -0.484375 C 4.09375 -0.453125 4.0625 -0.4375 4.015625 -0.4375 C 3.890625 -0.4375 3.828125 -0.53125 3.828125 -0.671875 L 3.828125 -2.984375 C 3.828125 -3.734375 3.15625 -4.203125 2.078125 -4.203125 C 1.0625 -4.203125 0.390625 -3.75 0.390625 -3.078125 C 0.390625 -2.71875 0.609375 -2.5 0.96875 -2.5 C 1.328125 -2.5 1.578125 -2.71875 1.578125 -3.015625 C 1.578125 -3.28125 1.3125 -3.46875 1.3125 -3.59375 Z M 2.609375 -0.890625 C 2.359375 -0.609375 2.1875 -0.5 1.96875 -0.5 C 1.703125 -0.5 1.515625 -0.75 1.515625 -1.109375 C 1.515625 -1.625 1.890625 -1.984375 2.609375 -2.171875 Z M 1.375 -4.6875 L 1.875 -4.6875 L 3.140625 -5.484375 C 3.421875 -5.65625 3.5 -5.75 3.5 -5.953125 C 3.5 -6.171875 3.328125 -6.34375 3.0625 -6.34375 C 2.890625 -6.34375 2.75 -6.265625 2.59375 -6.09375 Z "/>
</g>
<g id="glyph-0-9">
<path d="M 2.625 -3.609375 C 2.9375 -3.609375 3.09375 -3.375 3.09375 -2.875 L 3.09375 -0.71875 C 3.09375 -0.390625 2.984375 -0.25 2.671875 -0.21875 L 2.671875 0 L 4.765625 0 L 4.765625 -0.21875 C 4.421875 -0.234375 4.328125 -0.34375 4.328125 -0.71875 L 4.328125 -2.953125 C 4.328125 -3.71875 3.859375 -4.203125 3.125 -4.203125 C 2.59375 -4.203125 2.1875 -3.953125 1.859375 -3.4375 L 1.859375 -4.09375 L 0.15625 -4.09375 L 0.15625 -3.890625 C 0.546875 -3.828125 0.625 -3.734375 0.625 -3.359375 L 0.625 -0.75 C 0.625 -0.375 0.5625 -0.296875 0.15625 -0.21875 L 0.15625 0 L 2.296875 0 L 2.296875 -0.21875 C 1.96875 -0.265625 1.859375 -0.390625 1.859375 -0.71875 L 1.859375 -3.09375 C 1.859375 -3.1875 2.265625 -3.609375 2.625 -3.609375 Z "/>
</g>
<g id="glyph-0-10">
<path d="M 1.921875 -4.09375 L 0.21875 -4.09375 L 0.21875 -3.890625 C 0.609375 -3.8125 0.6875 -3.71875 0.6875 -3.359375 L 0.6875 -0.75 C 0.6875 -0.375 0.625 -0.3125 0.21875 -0.21875 L 0.21875 0 L 2.34375 0 L 2.34375 -0.21875 C 2.03125 -0.265625 1.921875 -0.375 1.921875 -0.71875 Z M 0.234375 -4.6875 L 0.734375 -4.6875 L 2 -5.484375 C 2.28125 -5.65625 2.359375 -5.75 2.359375 -5.953125 C 2.359375 -6.171875 2.1875 -6.34375 1.921875 -6.34375 C 1.765625 -6.34375 1.609375 -6.265625 1.453125 -6.09375 Z "/>
</g>
<g id="glyph-0-11">
<path d="M 1.3125 -3.59375 C 1.3125 -3.78125 1.5625 -3.921875 1.859375 -3.921875 C 2.375 -3.921875 2.609375 -3.6875 2.609375 -3.140625 L 2.609375 -2.484375 C 1.578125 -2.171875 0.21875 -1.828125 0.21875 -0.8125 C 0.21875 -0.28125 0.640625 0.125 1.203125 0.125 C 1.71875 0.125 2.125 -0.046875 2.609375 -0.5 C 2.71875 -0.046875 2.90625 0.125 3.34375 0.125 C 3.71875 0.125 4 -0.015625 4.34375 -0.375 L 4.203125 -0.5625 L 4.109375 -0.484375 C 4.09375 -0.453125 4.0625 -0.4375 4.015625 -0.4375 C 3.890625 -0.4375 3.828125 -0.53125 3.828125 -0.671875 L 3.828125 -2.984375 C 3.828125 -3.734375 3.15625 -4.203125 2.078125 -4.203125 C 1.0625 -4.203125 0.390625 -3.75 0.390625 -3.078125 C 0.390625 -2.71875 0.609375 -2.5 0.96875 -2.5 C 1.328125 -2.5 1.578125 -2.71875 1.578125 -3.015625 C 1.578125 -3.28125 1.3125 -3.46875 1.3125 -3.59375 Z M 2.609375 -0.890625 C 2.359375 -0.609375 2.1875 -0.5 1.96875 -0.5 C 1.703125 -0.5 1.515625 -0.75 1.515625 -1.109375 C 1.515625 -1.625 1.890625 -1.984375 2.609375 -2.171875 Z "/>
</g>
<g id="glyph-0-12">
<path d="M 2.6875 -4.09375 L 1.859375 -4.09375 L 1.859375 -5.59375 L 1.640625 -5.59375 C 1.09375 -4.84375 0.734375 -4.4375 0.15625 -3.953125 L 0.15625 -3.703125 L 0.625 -3.703125 L 0.625 -0.828125 C 0.625 -0.25 1 0.109375 1.625 0.109375 C 2.21875 0.109375 2.5625 -0.15625 2.9375 -0.890625 L 2.71875 -0.984375 C 2.53125 -0.65625 2.390625 -0.53125 2.203125 -0.53125 C 1.953125 -0.53125 1.859375 -0.671875 1.859375 -1.03125 L 1.859375 -3.703125 L 2.6875 -3.703125 Z "/>
</g>
</g>
</defs>
<g fill="rgb(0%, 100%, 100%)" fill-opacity="1">
<use xlink:href="#glyph-0-0" x="30" y="28.000977"/>
<use xlink:href="#glyph-0-1" x="34" y="28.000977"/>
<use xlink:href="#glyph-0-2" x="36" y="28.000977"/>
<use xlink:href="#glyph-0-3" x="38" y="28.000977"/>
<use xlink:href="#glyph-0-4" x="45" y="28.000977"/>
<use xlink:href="#glyph-0-5" x="49" y="28.000977"/>
<use xlink:href="#glyph-0-6" x="54" y="28.000977"/>
<use xlink:href="#glyph-0-7" x="58" y="28.000977"/>
<use xlink:href="#glyph-0-8" x="62" y="28.000977"/>
<use xlink:href="#glyph-0-9" x="66" y="28.000977"/>
<use xlink:href="#glyph-0-10" x="71" y="28.000977"/>
<use xlink:href="#glyph-0-2" x="74" y="28.000977"/>
<use xlink:href="#glyph-0-5" x="76" y="28.000977"/>
<use xlink:href="#glyph-0-11" x="81" y="28.000977"/>
<use xlink:href="#glyph-0-12" x="85" y="28.000977"/>
</g>
</svg>
