<?xml version="1.0" encoding="UTF-8"?>
<svg xmlns="http://www.w3.org/2000/svg" xmlns:xlink="http://www.w3.org/1999/xlink" width="854" height="480" viewBox="0 0 854 480">
<defs>
<g>
<g id="glyph-0-0">
<path d="M 11.046875 -10 L 11.046875 -10.296875 L 7.390625 -10.296875 L 7.390625 -10 C 8.59375 -9.90625 8.890625 -9.640625 8.890625 -8.015625 L 8.890625 -2.765625 L 2.890625 -10.296875 L 0.234375 -10.296875 L 0.234375 -10 C 0.90625 -10 1.125 -9.875 1.75 -9.15625 L 1.75 -2.28125 C 1.75 -0.6875 1.53125 -0.390625 0.234375 -0.296875 L 0.234375 0 L 3.890625 0 L 3.890625 -0.296875 C 2.6875 -0.359375 2.421875 -0.71875 2.421875 -2.28125 L 2.421875 -8.390625 L 9.3125 0.171875 L 9.578125 0.171875 L 9.578125 -8.015625 C 9.578125 -9.828125 10.09375 -9.90625 11.046875 -10 Z "/>
</g>
<g id="glyph-0-1">
<path d="M 1.515625 -4.3125 L 6.296875 -4.3125 C 6.0625 -6.1875 5.25 -7.15625 3.640625 -7.15625 C 1.765625 -7.15625 0.390625 -5.65625 0.390625 -3.328125 C 0.390625 -1.1875 1.515625 0.15625 3.296875 0.15625 C 4.78125 0.15625 5.9375 -0.765625 6.59375 -2.4375 L 6.34375 -2.546875 C 5.609375 -1.375 4.9375 -0.921875 3.9375 -0.921875 C 2.921875 -0.921875 1.609375 -1.546875 1.515625 -4.3125 Z M 1.546875 -4.8125 C 1.71875 -6.015625 2.234375 -6.59375 3.1875 -6.59375 C 4.140625 -6.59375 4.515625 -6.15625 4.71875 -4.8125 Z "/>
</g>
<g id="glyph-0-2">
<path d="M 7.46875 -0.78125 L 7.390625 -0.78125 C 6.671875 -0.78125 6.5 -0.953125 6.5 -1.671875 L 6.5 -7 L 4.046875 -7 L 4.046875 -6.734375 C 5.015625 -6.6875 5.203125 -6.53125 5.203125 -5.765625 L 5.203125 -2.09375 C 5.203125 -0.921875 3.84375 -0.75 3.53125 -0.75 C 2.921875 -0.75 2.421875 -1.28125 2.421875 -1.9375 L 2.421875 -7 L 0.15625 -7 L 0.15625 -6.78125 C 0.90625 -6.734375 1.125 -6.5 1.125 -5.796875 L 1.125 -1.875 C 1.125 -0.640625 1.875 0.15625 3 0.15625 C 4.125 0.15625 4.734375 -0.640625 5.28125 -1.1875 L 5.28125 0.109375 L 5.34375 0.140625 C 6.109375 -0.171875 6.671875 -0.34375 7.46875 -0.5625 Z "/>
</g>
<g id="glyph-0-3">
<path d="M 4.6875 -5.640625 C 5.0625 -5.640625 5.296875 -5.890625 5.296875 -6.328125 C 5.296875 -6.84375 4.96875 -7.15625 4.4375 -7.15625 C 3.78125 -7.15625 3.328125 -6.796875 2.5625 -5.703125 L 2.5625 -7.125 L 2.484375 -7.15625 C 1.671875 -6.8125 1.109375 -6.609375 0.1875 -6.3125 L 0.1875 -6.0625 C 0.40625 -6.109375 0.546875 -6.125 0.734375 -6.125 C 1.125 -6.125 1.265625 -5.875 1.265625 -5.203125 L 1.265625 -1.3125 C 1.265625 -0.53125 1.15625 -0.421875 0.15625 -0.234375 L 0.15625 0 L 3.890625 0 L 3.890625 -0.234375 C 2.828125 -0.28125 2.5625 -0.515625 2.5625 -1.40625 L 2.5625 -4.90625 C 2.5625 -5.40625 3.234375 -6.171875 3.65625 -6.171875 C 3.90625 -6.171875 4.265625 -5.640625 4.6875 -5.640625 Z "/>
</g>
<g id="glyph-0-4">
<path d="M 3.828125 -7.15625 C 1.8125 -7.15625 0.390625 -5.671875 0.390625 -3.515625 C 0.390625 -1.421875 1.84375 0.15625 3.796875 0.15625 C 5.765625 0.15625 7.25 -1.5 7.25 -3.640625 C 7.25 -5.6875 5.828125 -7.15625 3.828125 -7.15625 Z M 1.796875 -4.28125 C 1.796875 -5.765625 2.515625 -6.71875 3.625 -6.71875 C 4.9375 -6.71875 5.84375 -5.234375 5.84375 -3.09375 C 5.84375 -1.34375 5.15625 -0.28125 3.984375 -0.28125 C 2.640625 -0.28125 1.796875 -2.109375 1.796875 -4.28125 Z "/>
</g>
<g id="glyph-0-5">
<path d="M 0.15625 -6.1875 C 0.25 -6.234375 0.40625 -6.25 0.578125 -6.25 C 1.015625 -6.25 1.15625 -6.015625 1.15625 -5.265625 L 1.15625 -1.40625 C 1.15625 -0.515625 0.984375 -0.296875 0.1875 -0.234375 L 0.1875 0 L 3.484375 0 L 3.484375 -0.234375 C 2.6875 -0.296875 2.453125 -0.484375 2.453125 -1.046875 L 2.453125 -5.421875 C 3.203125 -6.109375 3.546875 -6.296875 4.0625 -6.296875 C 4.828125 -6.296875 5.203125 -5.828125 5.203125 -4.796875 L 5.203125 -1.546875 C 5.203125 -0.5625 5 -0.296875 4.21875 -0.234375 L 4.21875 0 L 7.453125 0 L 7.453125 -0.234375 C 6.6875 -0.3125 6.5 -0.5 6.5 -1.265625 L 6.5 -4.828125 C 6.5 -6.28125 5.828125 -7.15625 4.671875 -7.15625 C 3.953125 -7.15625 3.46875 -6.890625 2.40625 -5.890625 L 2.40625 -7.125 L 2.296875 -7.15625 C 1.546875 -6.875 1.015625 -6.703125 0.15625 -6.453125 Z "/>
</g>
</g>
</defs>
<g fill="rgb(16.078431%, 67.058824%, 79.215686%)" fill-opacity="1">
<use xlink:href="#glyph-0-0" x="30" y="34"/>
<use xlink:href="#glyph-0-1" x="41" y="34"/>
<use xlink:href="#glyph-0-2" x="48" y="34"/>
<use xlink:href="#glyph-0-3" x="56" y="34"/>
<use xlink:href="#glyph-0-4" x="61" y="34"/>
<use xlink:href="#glyph-0-5" x="68" y="34"/>
</g>
</svg>
