<?xml version="1.0" encoding="UTF-8"?>
<svg xmlns="http://www.w3.org/2000/svg" xmlns:xlink="http://www.w3.org/1999/xlink" width="854" height="480" viewBox="0 0 854 480">
<defs>
<g>
<g id="glyph-0-0">
<path d="M 1.328125 -5.140625 C 1.5625 -5.140625 1.65625 -4.9375 1.65625 -4.53125 L 1.65625 -1.109375 C 1.65625 -0.375 1.46875 -0.21875 0.59375 -0.21875 L 0.59375 0 L 3.921875 0 L 3.921875 -0.21875 C 3.125 -0.234375 2.96875 -0.359375 2.96875 -1.046875 L 2.96875 -6.109375 L 2.8125 -6.109375 L 0.578125 -5.140625 L 0.578125 -4.921875 C 0.71875 -4.96875 1.109375 -5.140625 1.328125 -5.140625 Z "/>
</g>
<g id="glyph-0-1">
<path d="M 1.109375 -1.390625 C 0.703125 -1.390625 0.359375 -1.046875 0.359375 -0.640625 C 0.359375 -0.21875 0.6875 0.109375 1.109375 0.109375 C 1.53125 0.109375 1.859375 -0.21875 1.859375 -0.625 C 1.859375 -1.046875 1.53125 -1.390625 1.109375 -1.390625 Z "/>
</g>
<g id="glyph-0-2">
</g>
<g id="glyph-0-3">
<path d="M 0.921875 -0.8125 C 0.921875 -0.421875 0.6875 -0.234375 0.171875 -0.21875 L 0.171875 0 L 2.984375 0 C 4.90625 0 6.1875 -1.234375 6.1875 -3.0625 C 6.1875 -4.90625 4.9375 -6.015625 2.890625 -6.015625 L 0.171875 -6.015625 L 0.171875 -5.78125 C 0.75 -5.734375 0.921875 -5.59375 0.921875 -5.1875 Z M 4.640625 -2.9375 C 4.640625 -0.875 3.796875 -0.3125 2.875 -0.3125 C 2.46875 -0.3125 2.359375 -0.421875 2.359375 -0.828125 L 2.359375 -5.390625 C 2.359375 -5.59375 2.53125 -5.703125 2.875 -5.703125 C 3.6875 -5.703125 4.640625 -5.125 4.640625 -2.9375 Z "/>
</g>
<g id="glyph-0-4">
<path d="M 1.3125 -3.59375 C 1.3125 -3.78125 1.5625 -3.921875 1.859375 -3.921875 C 2.375 -3.921875 2.609375 -3.6875 2.609375 -3.140625 L 2.609375 -2.484375 C 1.578125 -2.171875 0.21875 -1.828125 0.21875 -0.8125 C 0.21875 -0.28125 0.640625 0.125 1.203125 0.125 C 1.71875 0.125 2.125 -0.046875 2.609375 -0.5 C 2.71875 -0.046875 2.90625 0.125 3.34375 0.125 C 3.71875 0.125 4 -0.015625 4.34375 -0.375 L 4.203125 -0.5625 L 4.109375 -0.484375 C 4.09375 -0.453125 4.0625 -0.4375 4.015625 -0.4375 C 3.890625 -0.4375 3.828125 -0.53125 3.828125 -0.671875 L 3.828125 -2.984375 C 3.828125 -3.734375 3.15625 -4.203125 2.078125 -4.203125 C 1.0625 -4.203125 0.390625 -3.75 0.390625 -3.078125 C 0.390625 -2.71875 0.609375 -2.5 0.96875 -2.5 C 1.328125 -2.5 1.578125 -2.71875 1.578125 -3.015625 C 1.578125 -3.28125 1.3125 -3.46875 1.3125 -3.59375 Z M 2.609375 -0.890625 C 2.359375 -0.609375 2.1875 -0.5 1.96875 -0.5 C 1.703125 -0.5 1.515625 -0.75 1.515625 -1.109375 C 1.515625 -1.625 1.890625 -1.984375 2.609375 -2.171875 Z "/>
</g>
<g id="glyph-0-5">
<path d="M 2.6875 -4.09375 L 1.859375 -4.09375 L 1.859375 -5.59375 L 1.640625 -5.59375 C 1.09375 -4.84375 0.734375 -4.4375 0.15625 -3.953125 L 0.15625 -3.703125 L 0.625 -3.703125 L 0.625 -0.828125 C 0.625 -0.25 1 0.109375 1.625 0.109375 C 2.21875 0.109375 2.5625 -0.15625 2.9375 -0.890625 L 2.71875 -0.984375 C 2.53125 -0.65625 2.390625 -0.53125 2.203125 -0.53125 C 1.953125 -0.53125 1.859375 -0.671875 1.859375 -1.03125 L 1.859375 -3.703125 L 2.6875 -3.703125 Z "/>
</g>
<g id="glyph-0-6">
<path d="M 3.140625 -0.28125 C 2.5625 -0.28125 2.40625 -0.390625 2.40625 -0.78125 L 2.40625 -2.921875 C 3.375 -2.921875 3.734375 -2.578125 3.84375 -1.546875 L 4.078125 -1.546875 L 4.078125 -4.546875 L 3.84375 -4.546875 C 3.703125 -3.5625 3.375 -3.234375 2.4375 -3.234375 L 2.40625 -3.234375 L 2.40625 -5.296875 C 2.40625 -5.625 2.515625 -5.703125 2.984375 -5.703125 C 4.421875 -5.703125 4.859375 -5.40625 5.078125 -4.21875 L 5.3125 -4.21875 L 5.3125 -6.015625 L 0.171875 -6.015625 L 0.171875 -5.78125 C 0.796875 -5.75 0.953125 -5.609375 0.953125 -5.15625 L 0.953125 -0.859375 C 0.953125 -0.390625 0.828125 -0.296875 0.171875 -0.21875 L 0.171875 0 L 5.375 0 L 5.734375 -1.84375 L 5.484375 -1.84375 C 5.0625 -0.9375 4.546875 -0.28125 3.140625 -0.28125 Z "/>
</g>
<g id="glyph-0-7">
<path d="M 2.625 -3.609375 C 2.9375 -3.609375 3.09375 -3.375 3.09375 -2.875 L 3.09375 -0.71875 C 3.09375 -0.390625 2.984375 -0.25 2.671875 -0.21875 L 2.671875 0 L 4.765625 0 L 4.765625 -0.21875 C 4.421875 -0.234375 4.328125 -0.34375 4.328125 -0.71875 L 4.328125 -2.953125 C 4.328125 -3.71875 3.859375 -4.203125 3.125 -4.203125 C 2.59375 -4.203125 2.1875 -3.953125 1.859375 -3.4375 L 1.859375 -4.09375 L 0.15625 -4.09375 L 0.15625 -3.890625 C 0.546875 -3.828125 0.625 -3.734375 0.625 -3.359375 L 0.625 -0.75 C 0.625 -0.375 0.5625 -0.296875 0.15625 -0.21875 L 0.15625 0 L 2.296875 0 L 2.296875 -0.21875 C 1.96875 -0.265625 1.859375 -0.390625 1.859375 -0.71875 L 1.859375 -3.09375 C 1.859375 -3.1875 2.265625 -3.609375 2.625 -3.609375 Z "/>
</g>
<g id="glyph-0-8">
<path d="M 3.65625 -0.96875 C 3.328125 -0.59375 3.109375 -0.46875 2.734375 -0.46875 C 1.96875 -0.46875 1.46875 -1.25 1.46875 -2.453125 C 1.46875 -3.375 1.765625 -3.921875 2.21875 -3.921875 C 2.359375 -3.921875 2.5 -3.859375 2.546875 -3.765625 C 2.59375 -3.6875 2.59375 -3.6875 2.59375 -3.3125 C 2.609375 -2.875 2.765625 -2.671875 3.09375 -2.671875 C 3.46875 -2.671875 3.703125 -2.875 3.703125 -3.234375 C 3.703125 -3.78125 3.109375 -4.203125 2.328125 -4.203125 C 1.109375 -4.203125 0.21875 -3.265625 0.21875 -1.984375 C 0.21875 -0.75 1.015625 0.125 2.125 0.125 C 2.8125 0.125 3.3125 -0.15625 3.828125 -0.8125 Z "/>
</g>
<g id="glyph-0-9">
<path d="M 2.234375 -4.203125 C 1.109375 -4.203125 0.21875 -3.265625 0.21875 -2.0625 C 0.21875 -0.796875 1.0625 0.125 2.234375 0.125 C 3.375 0.125 4.234375 -0.796875 4.234375 -2.03125 C 4.234375 -3.28125 3.375 -4.203125 2.234375 -4.203125 Z M 2.234375 -3.921875 C 2.75 -3.921875 2.921875 -3.4375 2.921875 -1.984375 C 2.921875 -0.609375 2.75 -0.15625 2.234375 -0.15625 C 1.703125 -0.15625 1.53125 -0.609375 1.53125 -1.90625 C 1.53125 -3.46875 1.6875 -3.921875 2.234375 -3.921875 Z "/>
</g>
<g id="glyph-0-10">
<path d="M 3.015625 0.109375 C 3.421875 0 3.640625 -0.03125 4.203125 -0.109375 L 4.75 -0.171875 L 4.75 -0.375 C 4.34375 -0.40625 4.21875 -0.53125 4.21875 -0.890625 L 4.21875 -6.015625 L 2.3125 -6.015625 L 2.3125 -5.796875 C 2.90625 -5.75 2.984375 -5.6875 2.984375 -5.28125 L 2.984375 -3.65625 C 2.609375 -4.0625 2.34375 -4.203125 1.921875 -4.203125 C 0.953125 -4.203125 0.21875 -3.25 0.21875 -1.96875 C 0.21875 -0.75 0.890625 0.125 1.828125 0.125 C 2.296875 0.125 2.59375 -0.015625 3.015625 -0.46875 Z M 2.234375 -0.375 C 1.765625 -0.375 1.53125 -0.90625 1.53125 -2.03125 C 1.53125 -3.1875 1.78125 -3.703125 2.296875 -3.703125 C 2.59375 -3.703125 2.859375 -3.5 2.984375 -3.15625 L 2.984375 -1 C 2.984375 -0.90625 2.6875 -0.375 2.234375 -0.375 Z "/>
</g>
<g id="glyph-0-11">
<path d="M 1.921875 -4.09375 L 0.21875 -4.09375 L 0.21875 -3.890625 C 0.609375 -3.8125 0.6875 -3.71875 0.6875 -3.359375 L 0.6875 -0.75 C 0.6875 -0.375 0.625 -0.3125 0.21875 -0.21875 L 0.21875 0 L 2.359375 0 L 2.359375 -0.21875 C 2.046875 -0.265625 1.921875 -0.375 1.921875 -0.71875 Z M 1.296875 -6.140625 C 0.921875 -6.140625 0.609375 -5.828125 0.609375 -5.453125 C 0.609375 -5.0625 0.890625 -4.765625 1.296875 -4.765625 C 1.6875 -4.765625 1.984375 -5.0625 1.984375 -5.453125 C 1.984375 -5.828125 1.6875 -6.140625 1.296875 -6.140625 Z "/>
</g>
<g id="glyph-0-12">
<path d="M 1.40625 -1.421875 C 0.703125 -1.1875 0.34375 -0.84375 0.34375 -0.375 C 0.34375 -0.015625 0.5 0.140625 1.078125 0.34375 C 0.515625 0.421875 0.21875 0.65625 0.21875 1.015625 C 0.21875 1.53125 0.890625 1.828125 2.015625 1.828125 C 3.484375 1.828125 4.265625 1.375 4.265625 0.484375 C 4.265625 -0.203125 3.71875 -0.609375 2.8125 -0.609375 L 2.234375 -0.609375 C 1.515625 -0.609375 1.34375 -0.671875 1.34375 -0.921875 C 1.34375 -1.1875 1.59375 -1.375 1.953125 -1.375 L 2.34375 -1.375 C 3.578125 -1.375 3.890625 -2.15625 3.890625 -2.671875 C 3.890625 -3.015625 3.78125 -3.296875 3.53125 -3.53125 L 4.265625 -3.53125 L 4.265625 -4.015625 L 3.109375 -4.015625 C 2.71875 -4.15625 2.46875 -4.203125 2.109375 -4.203125 C 1.046875 -4.203125 0.296875 -3.625 0.296875 -2.78125 C 0.296875 -2.203125 0.625 -1.75 1.40625 -1.421875 Z M 2.859375 0.46875 C 3.328125 0.46875 3.5625 0.609375 3.5625 0.90625 C 3.5625 1.3125 3.078125 1.546875 2.203125 1.546875 C 1.40625 1.546875 1 1.34375 1 0.953125 C 1 0.765625 1.0625 0.671875 1.3125 0.46875 Z M 2.109375 -3.921875 C 2.53125 -3.921875 2.6875 -3.59375 2.6875 -2.765625 C 2.6875 -1.9375 2.53125 -1.625 2.109375 -1.625 C 1.6875 -1.625 1.515625 -1.9375 1.515625 -2.765625 C 1.515625 -3.59375 1.6875 -3.921875 2.109375 -3.921875 Z "/>
</g>
</g>
</defs>
<g fill="rgb(0%, 100%, 100%)" fill-opacity="1">
<use xlink:href="#glyph-0-0" x="30" y="28.000977"/>
<use xlink:href="#glyph-0-1" x="34" y="28.000977"/>
<use xlink:href="#glyph-0-2" x="36" y="28.000977"/>
<use xlink:href="#glyph-0-3" x="38" y="28.000977"/>
<use xlink:href="#glyph-0-4" x="44" y="28.000977"/>
<use xlink:href="#glyph-0-5" x="48" y="28.000977"/>
<use xlink:href="#glyph-0-4" x="51" y="28.000977"/>
<use xlink:href="#glyph-0-2" x="55" y="28.000977"/>
<use xlink:href="#glyph-0-6" x="57" y="28.000977"/>
<use xlink:href="#glyph-0-7" x="63" y="28.000977"/>
<use xlink:href="#glyph-0-8" x="68" y="28.000977"/>
<use xlink:href="#glyph-0-9" x="72" y="28.000977"/>
<use xlink:href="#glyph-0-10" x="76" y="28.000977"/>
<use xlink:href="#glyph-0-11" x="81" y="28.000977"/>
<use xlink:href="#glyph-0-7" x="84" y="28.000977"/>
<use xlink:href="#glyph-0-12" x="89" y="28.000977"/>
</g>
</svg>
