<?xml version="1.0" encoding="UTF-8"?>
<svg xmlns="http://www.w3.org/2000/svg" xmlns:xlink="http://www.w3.org/1999/xlink" width="854" height="480" viewBox="0 0 854 480">
<defs>
<g>
<g id="glyph-0-0">
<path d="M 1.125 -1.09375 C 1.125 -0.34375 0.984375 -0.21875 0.15625 -0.1875 L 0.15625 0 L 3.125 0 L 3.125 -0.1875 C 2.296875 -0.21875 2.140625 -0.359375 2.140625 -1.09375 L 2.140625 -5.53125 C 2.140625 -6.265625 2.28125 -6.390625 3.125 -6.4375 L 3.125 -6.625 L 0.15625 -6.625 L 0.15625 -6.4375 C 1 -6.375 1.125 -6.265625 1.125 -5.53125 Z "/>
</g>
<g id="glyph-0-1">
<path d="M 6.890625 -3.3125 C 6.890625 -5.3125 5.53125 -6.765625 3.625 -6.765625 C 1.703125 -6.765625 0.34375 -5.3125 0.34375 -3.296875 C 0.34375 -1.3125 1.515625 -0.375 2.65625 0.015625 C 3.21875 0.65625 3.984375 1.78125 6.609375 1.78125 C 6.78125 1.78125 6.859375 1.78125 7.015625 1.765625 L 7.015625 1.59375 C 5.875 1.5625 5.078125 1.125 4.265625 0.0625 C 4.8125 -0.03125 6.890625 -0.609375 6.890625 -3.3125 Z M 5.75 -3.328125 C 5.75 -2.0625 5.3125 -0.21875 3.625 -0.21875 C 2.703125 -0.21875 1.484375 -0.875 1.484375 -3.34375 C 1.484375 -4.5625 1.921875 -6.40625 3.65625 -6.40625 C 4.90625 -6.40625 5.75 -5.203125 5.75 -3.328125 Z "/>
</g>
<g id="glyph-0-2">
<path d="M 5.40625 -4.8125 C 5.40625 -6.265625 3.875 -6.625 2.796875 -6.625 L 0.15625 -6.625 L 0.15625 -6.4375 C 0.890625 -6.34375 0.984375 -6.25 0.984375 -5.53125 L 0.984375 -1.203125 C 0.984375 -0.359375 0.90625 -0.265625 0.15625 -0.1875 L 0.15625 0 L 2.953125 0 L 2.953125 -0.1875 C 2.15625 -0.21875 2.015625 -0.359375 2.015625 -1.09375 L 2.015625 -2.90625 C 2.265625 -2.890625 2.4375 -2.875 2.703125 -2.875 C 5 -2.875 5.40625 -4.046875 5.40625 -4.8125 Z M 2.015625 -5.90625 C 2.015625 -6.1875 2.078125 -6.25 2.34375 -6.25 C 3.703125 -6.25 4.3125 -5.78125 4.3125 -4.75 C 4.3125 -3.78125 3.734375 -3.28125 2.578125 -3.28125 C 2.375 -3.28125 2.234375 -3.296875 2.015625 -3.3125 Z "/>
</g>
<g id="glyph-0-3">
</g>
<g id="glyph-0-4">
<path d="M 2.046875 -0.796875 L 2.046875 -3.265625 L 3.578125 -3.265625 C 4.40625 -3.265625 4.546875 -3.140625 4.6875 -2.3125 L 4.90625 -2.3125 L 4.90625 -4.625 L 4.6875 -4.625 C 4.5625 -3.96875 4.515625 -3.6875 3.578125 -3.6875 L 2.046875 -3.6875 L 2.046875 -5.90625 C 2.046875 -6.1875 2.09375 -6.234375 2.375 -6.234375 L 3.71875 -6.234375 C 4.84375 -6.234375 5.0625 -6.09375 5.234375 -5.1875 L 5.484375 -5.1875 L 5.453125 -6.625 L 0.15625 -6.625 L 0.15625 -6.4375 C 0.890625 -6.375 1.015625 -6.234375 1.015625 -5.53125 L 1.015625 -1.09375 C 1.015625 -0.390625 0.875 -0.234375 0.15625 -0.1875 L 0.15625 0 L 5.546875 0 L 6 -1.6875 L 5.71875 -1.6875 C 5.21875 -0.609375 4.796875 -0.375 3.359375 -0.375 L 3.09375 -0.375 C 2.109375 -0.375 2.046875 -0.421875 2.046875 -0.796875 Z "/>
</g>
<g id="glyph-0-5">
<path d="M 0.09375 -3.984375 C 0.15625 -4.015625 0.265625 -4.015625 0.375 -4.015625 C 0.65625 -4.015625 0.734375 -3.875 0.734375 -3.375 L 0.734375 -0.90625 C 0.734375 -0.328125 0.625 -0.1875 0.125 -0.15625 L 0.125 0 L 2.234375 0 L 2.234375 -0.15625 C 1.734375 -0.1875 1.578125 -0.3125 1.578125 -0.671875 L 1.578125 -3.484375 C 2.0625 -3.9375 2.28125 -4.046875 2.609375 -4.046875 C 3.09375 -4.046875 3.34375 -3.734375 3.34375 -3.078125 L 3.34375 -0.984375 C 3.34375 -0.359375 3.203125 -0.1875 2.703125 -0.15625 L 2.703125 0 L 4.796875 0 L 4.796875 -0.15625 C 4.296875 -0.203125 4.1875 -0.3125 4.1875 -0.8125 L 4.1875 -3.09375 C 4.1875 -4.046875 3.734375 -4.59375 3 -4.59375 C 2.546875 -4.59375 2.234375 -4.4375 1.546875 -3.796875 L 1.546875 -4.578125 L 1.484375 -4.59375 C 0.984375 -4.421875 0.65625 -4.3125 0.09375 -4.15625 Z "/>
</g>
<g id="glyph-0-6">
<path d="M 0.25 -2.125 C 0.25 -0.828125 1.046875 0.09375 2.15625 0.09375 C 3.328125 0.09375 3.90625 -1.0625 4.125 -1.46875 L 3.984375 -1.5625 C 3.5 -0.859375 3.140625 -0.625 2.5625 -0.625 C 1.65625 -0.625 1.015625 -1.421875 1.015625 -2.5625 C 1.015625 -3.59375 1.5625 -4.3125 2.375 -4.3125 C 2.734375 -4.3125 2.875 -4.203125 2.96875 -3.828125 L 3.03125 -3.609375 C 3.109375 -3.328125 3.296875 -3.15625 3.5 -3.15625 C 3.765625 -3.15625 3.984375 -3.34375 3.984375 -3.5625 C 3.984375 -4.125 3.28125 -4.59375 2.4375 -4.59375 C 1.328125 -4.59375 0.25 -3.671875 0.25 -2.125 Z "/>
</g>
<g id="glyph-0-7">
<path d="M 2.453125 -4.59375 C 1.15625 -4.59375 0.25 -3.640625 0.25 -2.265625 C 0.25 -0.90625 1.1875 0.09375 2.4375 0.09375 C 3.703125 0.09375 4.65625 -0.953125 4.65625 -2.34375 C 4.65625 -3.65625 3.734375 -4.59375 2.453125 -4.59375 Z M 1.15625 -2.75 C 1.15625 -3.703125 1.625 -4.3125 2.328125 -4.3125 C 3.171875 -4.3125 3.765625 -3.359375 3.765625 -1.984375 C 3.765625 -0.859375 3.3125 -0.1875 2.5625 -0.1875 C 1.703125 -0.1875 1.15625 -1.359375 1.15625 -2.75 Z "/>
</g>
<g id="glyph-0-8">
<path d="M 3.421875 0.09375 L 4.890625 -0.421875 L 4.890625 -0.578125 C 4.703125 -0.5625 4.6875 -0.5625 4.65625 -0.5625 C 4.296875 -0.5625 4.21875 -0.6875 4.21875 -1.140625 L 4.21875 -6.8125 L 4.171875 -6.828125 C 3.6875 -6.65625 3.34375 -6.5625 2.703125 -6.390625 L 2.703125 -6.234375 C 2.78125 -6.234375 2.84375 -6.234375 2.921875 -6.234375 C 3.296875 -6.234375 3.375 -6.140625 3.375 -5.734375 L 3.375 -4.171875 C 3 -4.484375 2.734375 -4.59375 2.328125 -4.59375 C 1.1875 -4.59375 0.25 -3.46875 0.25 -2.046875 C 0.25 -0.765625 1 0.09375 2.09375 0.09375 C 2.65625 0.09375 3.046875 -0.09375 3.375 -0.5625 L 3.375 0.0625 Z M 2.484375 -0.421875 C 1.65625 -0.421875 1.109375 -1.21875 1.109375 -2.453125 C 1.109375 -3.578125 1.59375 -4.3125 2.359375 -4.3125 C 2.890625 -4.3125 3.375 -3.84375 3.375 -3.3125 L 3.375 -1.015625 C 3.375 -0.84375 3.0625 -0.421875 2.484375 -0.421875 Z "/>
</g>
<g id="glyph-0-9">
<path d="M 0.625 -3.9375 C 0.859375 -3.9375 0.953125 -3.78125 0.953125 -3.34375 L 0.953125 -1.015625 C 0.953125 -0.296875 0.84375 -0.1875 0.15625 -0.15625 L 0.15625 0 L 2.53125 0 L 2.53125 -0.15625 C 1.875 -0.203125 1.796875 -0.296875 1.796875 -1.015625 L 1.796875 -4.5625 L 1.75 -4.59375 C 1.234375 -4.390625 0.71875 -4.203125 0.203125 -4.046875 L 0.203125 -3.90625 C 0.34375 -3.921875 0.53125 -3.9375 0.625 -3.9375 Z M 1.28125 -6.828125 C 1.015625 -6.828125 0.78125 -6.59375 0.78125 -6.3125 C 0.78125 -6.046875 1 -5.8125 1.28125 -5.8125 C 1.5625 -5.8125 1.796875 -6.03125 1.796875 -6.3125 C 1.796875 -6.59375 1.5625 -6.828125 1.28125 -6.828125 Z "/>
</g>
<g id="glyph-0-10">
<path d="M 0.59375 -0.546875 C 0.59375 -0.328125 0.71875 -0.203125 1.125 -0.015625 C 0.421875 0.515625 0.15625 0.84375 0.15625 1.203125 C 0.15625 1.734375 0.9375 2.1875 1.875 2.1875 C 3.0625 2.1875 4.484375 1.5 4.484375 0.484375 C 4.484375 -0.125 4.015625 -0.546875 3.265625 -0.578125 L 1.984375 -0.640625 C 1.453125 -0.65625 1.203125 -0.75 1.203125 -0.90625 C 1.203125 -1.109375 1.53125 -1.453125 1.796875 -1.546875 C 1.90625 -1.53125 2.265625 -1.484375 2.375 -1.484375 C 3.171875 -1.484375 3.9375 -2.078125 3.9375 -3.046875 C 3.9375 -3.328125 3.875 -3.5625 3.734375 -3.875 L 4.5625 -3.875 L 4.5625 -4.265625 L 3.796875 -4.265625 C 3.1875 -4.265625 2.984375 -4.59375 2.234375 -4.59375 C 1.296875 -4.59375 0.5625 -3.875 0.5625 -2.96875 C 0.5625 -2.34375 0.828125 -1.953125 1.484375 -1.625 C 0.703125 -0.890625 0.59375 -0.796875 0.59375 -0.546875 Z M 1.34375 0.015625 C 1.671875 0.09375 2.46875 0.15625 2.953125 0.15625 C 3.875 0.15625 4.203125 0.28125 4.203125 0.640625 C 4.203125 1.21875 3.4375 1.609375 2.3125 1.609375 C 1.4375 1.609375 0.84375 1.3125 0.84375 0.875 C 0.84375 0.65625 0.921875 0.515625 1.34375 0.015625 Z M 3.15625 -2.65625 C 3.15625 -2.09375 2.875 -1.734375 2.40625 -1.734375 C 2 -1.734375 1.390625 -2.109375 1.390625 -3.375 C 1.390625 -3.96875 1.671875 -4.3125 2.125 -4.3125 C 3.015625 -4.3125 3.15625 -2.984375 3.15625 -2.65625 Z "/>
</g>
</g>
</defs>
<g fill="rgb(79.215686%, 63.921569%, 90.980392%)" fill-opacity="1">
<use xlink:href="#glyph-0-0" x="30" y="29"/>
<use xlink:href="#glyph-0-1" x="33" y="29"/>
<use xlink:href="#glyph-0-2" x="40" y="29"/>
<use xlink:href="#glyph-0-3" x="46" y="29"/>
<use xlink:href="#glyph-0-4" x="49" y="29"/>
<use xlink:href="#glyph-0-5" x="55" y="29"/>
<use xlink:href="#glyph-0-6" x="60" y="29"/>
<use xlink:href="#glyph-0-7" x="64" y="29"/>
<use xlink:href="#glyph-0-8" x="69" y="29"/>
<use xlink:href="#glyph-0-9" x="74" y="29"/>
<use xlink:href="#glyph-0-5" x="77" y="29"/>
<use xlink:href="#glyph-0-10" x="82" y="29"/>
</g>
</svg>
