<?xml version="1.0" encoding="UTF-8"?>
<svg xmlns="http://www.w3.org/2000/svg" xmlns:xlink="http://www.w3.org/1999/xlink" width="854" height="480" viewBox="0 0 854 480">
<defs>
<g>
<g id="glyph-0-0">
<path d="M 8.484375 -8.265625 L 5.890625 -8.265625 L 5.890625 -7.953125 C 6.75 -7.890625 6.9375 -7.8125 6.9375 -7.421875 C 6.9375 -7.21875 6.90625 -7.078125 6.703125 -6.546875 L 5.140625 -2.53125 L 3.453125 -6.609375 C 3.21875 -7.15625 3.171875 -7.3125 3.171875 -7.484375 C 3.171875 -7.765625 3.359375 -7.90625 3.828125 -7.9375 C 3.890625 -7.9375 4.046875 -7.9375 4.234375 -7.953125 L 4.234375 -8.265625 L 0.125 -8.265625 L 0.125 -7.953125 C 0.734375 -7.875 0.84375 -7.765625 1.15625 -7.09375 L 4.28125 0.21875 L 4.609375 0.21875 L 7.390625 -6.953125 C 7.6875 -7.703125 7.859375 -7.875 8.484375 -7.953125 Z "/>
</g>
<g id="glyph-0-1">
<path d="M 5.984375 0.078125 C 6.984375 -0.25 7.40625 -0.484375 7.9375 -1.046875 C 8.671875 -1.84375 9.078125 -2.890625 9.078125 -4.078125 C 9.078125 -6.625 7.265625 -8.4375 4.75 -8.4375 C 2.265625 -8.4375 0.421875 -6.578125 0.421875 -4.046875 C 0.421875 -2.9375 0.8125 -1.90625 1.515625 -1.125 C 2.015625 -0.5625 2.40625 -0.3125 3.328125 0.03125 C 3.59375 0.5625 3.734375 0.796875 4.015625 1.078125 C 4.703125 1.765625 5.734375 2.15625 6.8125 2.15625 C 7.546875 2.15625 8.078125 2.046875 9 1.71875 L 8.921875 1.421875 C 8.53125 1.546875 8.328125 1.578125 8.09375 1.578125 C 6.75 1.578125 6.203125 0.53125 5.984375 0.078125 Z M 4.765625 -8.046875 C 6.140625 -8.046875 6.921875 -6.578125 6.921875 -4.03125 C 6.921875 -1.515625 6.15625 -0.171875 4.75 -0.171875 C 3.328125 -0.171875 2.59375 -1.5 2.59375 -4.046875 C 2.59375 -6.609375 3.375 -8.046875 4.765625 -8.046875 Z "/>
</g>
<g id="glyph-0-2">
<path d="M 5.046875 -0.359375 C 3.671875 -0.359375 2.59375 -1.234375 2.59375 -4.171875 C 2.59375 -6.703125 3.375 -8.046875 4.84375 -8.046875 C 6.453125 -8.046875 7.40625 -6.171875 7.703125 -5.546875 L 8 -5.546875 L 8 -8.40625 L 7.671875 -8.40625 C 7.5 -7.984375 7.375 -7.84375 7.140625 -7.84375 C 6.640625 -7.84375 6.015625 -8.4375 4.6875 -8.4375 C 2.25 -8.4375 0.421875 -6.5625 0.421875 -4.0625 C 0.421875 -1.546875 2.21875 0.234375 4.75 0.234375 C 6.765625 0.234375 7.734375 -1.015625 8.21875 -1.546875 L 7.859375 -1.859375 C 7.0625 -1.03125 6.21875 -0.359375 5.046875 -0.359375 Z "/>
</g>
</g>
</defs>
<g fill="rgb(100%, 100%, 100%)" fill-opacity="1">
<use xlink:href="#glyph-0-0" x="30" y="31"/>
<use xlink:href="#glyph-0-1" x="38" y="31"/>
<use xlink:href="#glyph-0-2" x="48" y="31"/>
</g>
</svg>
