<?xml version="1.0" encoding="UTF-8"?>
<svg xmlns="http://www.w3.org/2000/svg" xmlns:xlink="http://www.w3.org/1999/xlink" width="854" height="480" viewBox="0 0 854 480">
<defs>
<g>
<g id="glyph-0-0">
<path d="M 3.609375 -3.203125 C 3.609375 -4.171875 2.578125 -4.421875 1.859375 -4.421875 L 0.09375 -4.421875 L 0.09375 -4.296875 C 0.59375 -4.234375 0.65625 -4.171875 0.65625 -3.6875 L 0.65625 -0.796875 C 0.65625 -0.234375 0.609375 -0.171875 0.09375 -0.125 L 0.09375 0 L 1.96875 0 L 1.96875 -0.125 C 1.4375 -0.140625 1.34375 -0.234375 1.34375 -0.734375 L 1.34375 -1.9375 C 1.515625 -1.921875 1.625 -1.921875 1.796875 -1.921875 C 3.34375 -1.921875 3.609375 -2.703125 3.609375 -3.203125 Z M 1.34375 -3.9375 C 1.34375 -4.125 1.390625 -4.171875 1.5625 -4.171875 C 2.46875 -4.171875 2.875 -3.859375 2.875 -3.171875 C 2.875 -2.515625 2.484375 -2.1875 1.71875 -2.1875 C 1.59375 -2.1875 1.5 -2.1875 1.34375 -2.203125 Z "/>
</g>
<g id="glyph-0-1">
<path d="M 0.234375 -2.171875 C 0.234375 -0.796875 1.140625 0.09375 2.453125 0.09375 C 3.203125 0.09375 3.859375 -0.21875 4.265625 -0.75 L 4.15625 -0.875 C 3.65625 -0.40625 3.21875 -0.203125 2.65625 -0.203125 C 1.921875 -0.203125 1 -0.625 1 -2.25 C 1 -3.46875 1.625 -4.25 2.59375 -4.25 C 3.453125 -4.25 3.84375 -3.640625 4.03125 -3 L 4.1875 -3 L 4.125 -4.515625 L 3.984375 -4.515625 C 3.9375 -4.375 3.84375 -4.296875 3.703125 -4.296875 C 3.46875 -4.296875 3.203125 -4.515625 2.46875 -4.515625 C 1.21875 -4.515625 0.234375 -3.578125 0.234375 -2.171875 Z "/>
</g>
<g id="glyph-0-2">
<path d="M 4.703125 -0.125 C 4.40625 -0.140625 4.328125 -0.203125 4.109375 -0.703125 L 2.453125 -4.5 L 2.3125 -4.5 L 0.921875 -1.21875 C 0.515625 -0.234375 0.421875 -0.140625 0.09375 -0.125 L 0.09375 0 L 1.421875 0 L 1.421875 -0.125 C 1.09375 -0.125 0.96875 -0.21875 0.96875 -0.40625 C 0.96875 -0.484375 0.984375 -0.578125 1.015625 -0.65625 L 1.328125 -1.4375 L 3.078125 -1.4375 L 3.34375 -0.796875 C 3.421875 -0.625 3.46875 -0.453125 3.46875 -0.359375 C 3.46875 -0.1875 3.359375 -0.140625 3.015625 -0.125 L 3.015625 0 L 4.703125 0 Z M 1.4375 -1.71875 L 2.203125 -3.546875 L 2.984375 -1.71875 Z "/>
</g>
</g>
</defs>
<g fill="rgb(100%, 100%, 100%)" fill-opacity="1">
<use xlink:href="#glyph-0-0" x="30" y="26"/>
<use xlink:href="#glyph-0-1" x="34" y="26"/>
<use xlink:href="#glyph-0-2" x="38" y="26"/>
</g>
</svg>
