<?xml version="1.0" encoding="UTF-8"?>
<svg xmlns="http://www.w3.org/2000/svg" xmlns:xlink="http://www.w3.org/1999/xlink" width="854" height="480" viewBox="0 0 854 480">
<defs>
<g>
<g id="glyph-0-0">
<path d="M 0.828125 0.046875 C 1.296875 0.046875 1.578125 -0.4375 1.578125 -1.09375 C 1.578125 -1.78125 1.28125 -2.25 0.84375 -2.25 C 0.359375 -2.25 0.078125 -1.734375 0.078125 -1.125 C 0.078125 -0.453125 0.375 0.046875 0.828125 0.046875 Z M 0.828125 -2.15625 C 1.109375 -2.15625 1.265625 -1.78125 1.265625 -1.09375 C 1.265625 -0.390625 1.125 -0.046875 0.828125 -0.046875 C 0.546875 -0.046875 0.40625 -0.390625 0.40625 -1.09375 C 0.40625 -1.796875 0.546875 -2.15625 0.828125 -2.15625 Z "/>
</g>
<g id="glyph-0-1">
<path d="M 0.421875 -0.328125 C 0.3125 -0.328125 0.234375 -0.25 0.234375 -0.140625 C 0.234375 -0.046875 0.3125 0.03125 0.40625 0.03125 C 0.515625 0.03125 0.609375 -0.046875 0.609375 -0.140625 C 0.609375 -0.25 0.515625 -0.328125 0.421875 -0.328125 Z "/>
</g>
<g id="glyph-0-2">
<path d="M 1.1875 -0.640625 C 1.1875 -0.328125 0.984375 -0.078125 0.71875 -0.078125 C 0.546875 -0.078125 0.4375 -0.28125 0.25 -0.28125 C 0.15625 -0.28125 0.109375 -0.25 0.109375 -0.15625 C 0.109375 -0.03125 0.265625 0.046875 0.515625 0.046875 C 0.859375 0.046875 1.421875 -0.125 1.421875 -0.8125 C 1.421875 -1.328125 1.078125 -1.546875 0.46875 -1.65625 L 0.609375 -1.9375 L 1.25 -1.9375 C 1.3125 -1.9375 1.328125 -1.953125 1.328125 -1.96875 L 1.453125 -2.265625 L 1.421875 -2.296875 C 1.375 -2.21875 1.34375 -2.203125 1.28125 -2.203125 L 0.578125 -2.203125 L 0.21875 -1.421875 C 0.21875 -1.40625 0.21875 -1.40625 0.21875 -1.390625 C 0.21875 -1.375 0.21875 -1.375 0.25 -1.375 C 0.453125 -1.375 1.1875 -1.265625 1.1875 -0.640625 Z "/>
</g>
</g>
</defs>
<g fill="rgb(100%, 100%, 100%)" fill-opacity="1">
<use xlink:href="#glyph-0-0" x="30" y="23"/>
<use xlink:href="#glyph-0-1" x="32" y="23"/>
<use xlink:href="#glyph-0-2" x="33" y="23"/>
</g>
</svg>
